%TF.GenerationSoftware,KiCad,Pcbnew,(6.0.7)*%
%TF.CreationDate,2022-09-23T14:32:50+02:00*%
%TF.ProjectId,LED torch,4c454420-746f-4726-9368-2e6b69636164,0.1*%
%TF.SameCoordinates,Original*%
%TF.FileFunction,Legend,Bot*%
%TF.FilePolarity,Positive*%
%FSLAX46Y46*%
G04 Gerber Fmt 4.6, Leading zero omitted, Abs format (unit mm)*
G04 Created by KiCad (PCBNEW (6.0.7)) date 2022-09-23 14:32:50*
%MOMM*%
%LPD*%
G01*
G04 APERTURE LIST*
%ADD10C,0.150000*%
%ADD11C,0.010000*%
G04 APERTURE END LIST*
D10*
X169782857Y-90971714D02*
X169544761Y-91638380D01*
X169306666Y-90971714D01*
X168401904Y-91638380D02*
X168973333Y-91638380D01*
X168687619Y-91638380D02*
X168687619Y-90638380D01*
X168782857Y-90781238D01*
X168878095Y-90876476D01*
X168973333Y-90924095D01*
X167973333Y-91543142D02*
X167925714Y-91590761D01*
X167973333Y-91638380D01*
X168020952Y-91590761D01*
X167973333Y-91543142D01*
X167973333Y-91638380D01*
X167306666Y-90638380D02*
X167211428Y-90638380D01*
X167116190Y-90686000D01*
X167068571Y-90733619D01*
X167020952Y-90828857D01*
X166973333Y-91019333D01*
X166973333Y-91257428D01*
X167020952Y-91447904D01*
X167068571Y-91543142D01*
X167116190Y-91590761D01*
X167211428Y-91638380D01*
X167306666Y-91638380D01*
X167401904Y-91590761D01*
X167449523Y-91543142D01*
X167497142Y-91447904D01*
X167544761Y-91257428D01*
X167544761Y-91019333D01*
X167497142Y-90828857D01*
X167449523Y-90733619D01*
X167401904Y-90686000D01*
X167306666Y-90638380D01*
X166544761Y-91543142D02*
X166497142Y-91590761D01*
X166544761Y-91638380D01*
X166592380Y-91590761D01*
X166544761Y-91543142D01*
X166544761Y-91638380D01*
X165878095Y-90638380D02*
X165782857Y-90638380D01*
X165687619Y-90686000D01*
X165640000Y-90733619D01*
X165592380Y-90828857D01*
X165544761Y-91019333D01*
X165544761Y-91257428D01*
X165592380Y-91447904D01*
X165640000Y-91543142D01*
X165687619Y-91590761D01*
X165782857Y-91638380D01*
X165878095Y-91638380D01*
X165973333Y-91590761D01*
X166020952Y-91543142D01*
X166068571Y-91447904D01*
X166116190Y-91257428D01*
X166116190Y-91019333D01*
X166068571Y-90828857D01*
X166020952Y-90733619D01*
X165973333Y-90686000D01*
X165878095Y-90638380D01*
%TO.C,REF\u002A\u002A*%
G36*
X167413834Y-95102031D02*
G01*
X167657638Y-95124413D01*
X167884132Y-95169551D01*
X168101742Y-95239345D01*
X168318891Y-95335696D01*
X168533845Y-95458715D01*
X168764534Y-95626422D01*
X168978459Y-95820323D01*
X169170911Y-96035618D01*
X169337180Y-96267507D01*
X169472553Y-96511190D01*
X169484841Y-96537258D01*
X169587750Y-96788881D01*
X169665946Y-97050345D01*
X169720439Y-97326646D01*
X169752241Y-97622779D01*
X169762360Y-97943739D01*
X169750056Y-98275528D01*
X169711001Y-98602276D01*
X169644590Y-98908149D01*
X169550227Y-99195317D01*
X169427320Y-99465949D01*
X169275273Y-99722214D01*
X169132450Y-99918000D01*
X168935243Y-100138289D01*
X168720296Y-100326974D01*
X168487703Y-100483993D01*
X168237558Y-100609285D01*
X167969957Y-100702786D01*
X167684992Y-100764437D01*
X167681740Y-100764917D01*
X167626862Y-100769732D01*
X167544049Y-100773304D01*
X167440958Y-100775465D01*
X167325246Y-100776050D01*
X167204572Y-100774891D01*
X167119997Y-100773192D01*
X166994512Y-100769258D01*
X166893958Y-100763626D01*
X166811083Y-100755694D01*
X166738634Y-100744863D01*
X166669357Y-100730530D01*
X166591416Y-100712007D01*
X166510099Y-100690914D01*
X166436556Y-100668787D01*
X166364112Y-100643033D01*
X166286093Y-100611060D01*
X166195825Y-100570278D01*
X166086631Y-100518093D01*
X165951839Y-100451915D01*
X165579036Y-100267677D01*
X165877628Y-99777231D01*
X165916719Y-99713041D01*
X165986950Y-99597810D01*
X166049811Y-99494794D01*
X166103004Y-99407748D01*
X166144233Y-99340432D01*
X166171200Y-99296601D01*
X166181607Y-99280015D01*
X166184502Y-99280510D01*
X166207820Y-99296742D01*
X166248786Y-99330429D01*
X166300927Y-99376345D01*
X166393787Y-99455678D01*
X166559562Y-99572990D01*
X166720403Y-99654771D01*
X166836631Y-99695611D01*
X167033222Y-99737348D01*
X167226378Y-99744746D01*
X167413299Y-99718309D01*
X167591183Y-99658540D01*
X167757230Y-99565943D01*
X167908637Y-99441022D01*
X167992886Y-99349014D01*
X168111574Y-99178831D01*
X168208964Y-98981342D01*
X168285519Y-98755536D01*
X168341707Y-98500401D01*
X168344256Y-98484562D01*
X168356033Y-98381903D01*
X168364800Y-98254351D01*
X168370486Y-98110622D01*
X168373021Y-97959431D01*
X168372333Y-97809493D01*
X168368352Y-97669524D01*
X168361006Y-97548241D01*
X168350225Y-97454357D01*
X168308900Y-97241692D01*
X168239365Y-96993270D01*
X168151915Y-96775781D01*
X168046665Y-96589393D01*
X167923732Y-96434273D01*
X167783235Y-96310590D01*
X167625288Y-96218512D01*
X167450010Y-96158209D01*
X167411121Y-96150724D01*
X167313666Y-96140951D01*
X167199773Y-96137761D01*
X167082204Y-96140979D01*
X166973717Y-96150429D01*
X166887072Y-96165936D01*
X166742732Y-96215313D01*
X166575228Y-96305456D01*
X166426080Y-96424084D01*
X166399756Y-96449073D01*
X166352057Y-96493285D01*
X166318345Y-96523042D01*
X166304649Y-96532941D01*
X166301277Y-96528207D01*
X166280523Y-96498313D01*
X166243028Y-96444033D01*
X166191270Y-96368962D01*
X166127728Y-96276694D01*
X166054877Y-96170823D01*
X165975197Y-96054944D01*
X165649286Y-95580817D01*
X165722092Y-95559004D01*
X165729690Y-95556532D01*
X165779145Y-95536898D01*
X165850447Y-95505239D01*
X165935228Y-95465362D01*
X166025120Y-95421076D01*
X166064292Y-95401496D01*
X166281804Y-95300409D01*
X166482283Y-95222238D01*
X166673438Y-95164985D01*
X166862981Y-95126649D01*
X167058622Y-95105231D01*
X167268072Y-95098731D01*
X167413834Y-95102031D01*
G37*
D11*
X167413834Y-95102031D02*
X167657638Y-95124413D01*
X167884132Y-95169551D01*
X168101742Y-95239345D01*
X168318891Y-95335696D01*
X168533845Y-95458715D01*
X168764534Y-95626422D01*
X168978459Y-95820323D01*
X169170911Y-96035618D01*
X169337180Y-96267507D01*
X169472553Y-96511190D01*
X169484841Y-96537258D01*
X169587750Y-96788881D01*
X169665946Y-97050345D01*
X169720439Y-97326646D01*
X169752241Y-97622779D01*
X169762360Y-97943739D01*
X169750056Y-98275528D01*
X169711001Y-98602276D01*
X169644590Y-98908149D01*
X169550227Y-99195317D01*
X169427320Y-99465949D01*
X169275273Y-99722214D01*
X169132450Y-99918000D01*
X168935243Y-100138289D01*
X168720296Y-100326974D01*
X168487703Y-100483993D01*
X168237558Y-100609285D01*
X167969957Y-100702786D01*
X167684992Y-100764437D01*
X167681740Y-100764917D01*
X167626862Y-100769732D01*
X167544049Y-100773304D01*
X167440958Y-100775465D01*
X167325246Y-100776050D01*
X167204572Y-100774891D01*
X167119997Y-100773192D01*
X166994512Y-100769258D01*
X166893958Y-100763626D01*
X166811083Y-100755694D01*
X166738634Y-100744863D01*
X166669357Y-100730530D01*
X166591416Y-100712007D01*
X166510099Y-100690914D01*
X166436556Y-100668787D01*
X166364112Y-100643033D01*
X166286093Y-100611060D01*
X166195825Y-100570278D01*
X166086631Y-100518093D01*
X165951839Y-100451915D01*
X165579036Y-100267677D01*
X165877628Y-99777231D01*
X165916719Y-99713041D01*
X165986950Y-99597810D01*
X166049811Y-99494794D01*
X166103004Y-99407748D01*
X166144233Y-99340432D01*
X166171200Y-99296601D01*
X166181607Y-99280015D01*
X166184502Y-99280510D01*
X166207820Y-99296742D01*
X166248786Y-99330429D01*
X166300927Y-99376345D01*
X166393787Y-99455678D01*
X166559562Y-99572990D01*
X166720403Y-99654771D01*
X166836631Y-99695611D01*
X167033222Y-99737348D01*
X167226378Y-99744746D01*
X167413299Y-99718309D01*
X167591183Y-99658540D01*
X167757230Y-99565943D01*
X167908637Y-99441022D01*
X167992886Y-99349014D01*
X168111574Y-99178831D01*
X168208964Y-98981342D01*
X168285519Y-98755536D01*
X168341707Y-98500401D01*
X168344256Y-98484562D01*
X168356033Y-98381903D01*
X168364800Y-98254351D01*
X168370486Y-98110622D01*
X168373021Y-97959431D01*
X168372333Y-97809493D01*
X168368352Y-97669524D01*
X168361006Y-97548241D01*
X168350225Y-97454357D01*
X168308900Y-97241692D01*
X168239365Y-96993270D01*
X168151915Y-96775781D01*
X168046665Y-96589393D01*
X167923732Y-96434273D01*
X167783235Y-96310590D01*
X167625288Y-96218512D01*
X167450010Y-96158209D01*
X167411121Y-96150724D01*
X167313666Y-96140951D01*
X167199773Y-96137761D01*
X167082204Y-96140979D01*
X166973717Y-96150429D01*
X166887072Y-96165936D01*
X166742732Y-96215313D01*
X166575228Y-96305456D01*
X166426080Y-96424084D01*
X166399756Y-96449073D01*
X166352057Y-96493285D01*
X166318345Y-96523042D01*
X166304649Y-96532941D01*
X166301277Y-96528207D01*
X166280523Y-96498313D01*
X166243028Y-96444033D01*
X166191270Y-96368962D01*
X166127728Y-96276694D01*
X166054877Y-96170823D01*
X165975197Y-96054944D01*
X165649286Y-95580817D01*
X165722092Y-95559004D01*
X165729690Y-95556532D01*
X165779145Y-95536898D01*
X165850447Y-95505239D01*
X165935228Y-95465362D01*
X166025120Y-95421076D01*
X166064292Y-95401496D01*
X166281804Y-95300409D01*
X166482283Y-95222238D01*
X166673438Y-95164985D01*
X166862981Y-95126649D01*
X167058622Y-95105231D01*
X167268072Y-95098731D01*
X167413834Y-95102031D01*
G36*
X165579842Y-99599722D02*
G01*
X165562232Y-99735833D01*
X165535659Y-99849214D01*
X165493259Y-99965867D01*
X165394976Y-100158110D01*
X165269350Y-100327247D01*
X165117681Y-100472126D01*
X164941271Y-100591594D01*
X164741420Y-100684499D01*
X164519429Y-100749689D01*
X164428907Y-100764392D01*
X164299552Y-100774611D01*
X164158675Y-100776909D01*
X164018050Y-100771472D01*
X163889449Y-100758485D01*
X163784643Y-100738133D01*
X163731979Y-100722109D01*
X163612369Y-100675219D01*
X163490783Y-100615688D01*
X163379765Y-100549971D01*
X163291859Y-100484524D01*
X163290778Y-100483579D01*
X163242607Y-100442736D01*
X163205545Y-100413653D01*
X163187537Y-100402572D01*
X163185568Y-100405217D01*
X163181113Y-100433794D01*
X163178018Y-100487094D01*
X163176857Y-100556786D01*
X163176857Y-100711000D01*
X162496500Y-100711000D01*
X162478389Y-100710997D01*
X162326490Y-100710731D01*
X162187078Y-100710070D01*
X162064118Y-100709062D01*
X161961579Y-100707758D01*
X161883426Y-100706205D01*
X161833625Y-100704454D01*
X161816143Y-100702553D01*
X161816550Y-100700893D01*
X161827988Y-100676377D01*
X161851962Y-100630317D01*
X161884179Y-100571018D01*
X161952215Y-100447929D01*
X161962190Y-99232689D01*
X163249429Y-99232689D01*
X163249935Y-99328703D01*
X163252387Y-99429587D01*
X163257190Y-99502507D01*
X163264695Y-99552212D01*
X163275250Y-99583449D01*
X163288828Y-99605755D01*
X163339962Y-99666561D01*
X163408475Y-99729863D01*
X163483568Y-99786265D01*
X163554440Y-99826370D01*
X163593761Y-99841085D01*
X163684302Y-99860677D01*
X163802555Y-99870694D01*
X163927232Y-99869177D01*
X164045627Y-99848574D01*
X164144449Y-99806011D01*
X164229948Y-99739571D01*
X164254000Y-99714995D01*
X164316622Y-99631185D01*
X164350504Y-99540850D01*
X164360679Y-99432151D01*
X164357922Y-99374725D01*
X164330661Y-99256507D01*
X164273390Y-99155039D01*
X164185068Y-99069179D01*
X164064651Y-98997784D01*
X163911097Y-98939714D01*
X163849193Y-98924475D01*
X163774251Y-98914041D01*
X163679937Y-98908246D01*
X163557857Y-98906298D01*
X163538026Y-98906299D01*
X163446696Y-98907414D01*
X163368244Y-98910108D01*
X163310471Y-98914029D01*
X163281179Y-98918824D01*
X163277808Y-98920380D01*
X163266910Y-98930154D01*
X163259192Y-98949794D01*
X163254119Y-98984585D01*
X163251157Y-99039809D01*
X163249772Y-99120750D01*
X163249429Y-99232689D01*
X161962190Y-99232689D01*
X161962714Y-99168857D01*
X161964275Y-98982561D01*
X161966458Y-98744965D01*
X161968750Y-98538698D01*
X161971335Y-98360842D01*
X161974400Y-98208481D01*
X161978128Y-98078696D01*
X161982705Y-97968572D01*
X161988316Y-97875190D01*
X161995147Y-97795635D01*
X162003383Y-97726988D01*
X162013208Y-97666333D01*
X162024808Y-97610752D01*
X162038368Y-97557329D01*
X162054073Y-97503146D01*
X162072109Y-97445286D01*
X162143161Y-97263898D01*
X162240464Y-97096258D01*
X162361641Y-96952732D01*
X162507803Y-96832570D01*
X162680057Y-96735020D01*
X162879515Y-96659331D01*
X163107285Y-96604753D01*
X163364477Y-96570535D01*
X163454368Y-96563730D01*
X163605760Y-96558755D01*
X163755814Y-96563235D01*
X163911554Y-96577927D01*
X164080005Y-96603584D01*
X164268193Y-96640962D01*
X164483143Y-96690818D01*
X164532828Y-96702881D01*
X164657601Y-96732565D01*
X164775861Y-96759898D01*
X164880436Y-96783263D01*
X164964154Y-96801047D01*
X165019845Y-96811636D01*
X165148333Y-96832740D01*
X164967695Y-97270549D01*
X164922512Y-97379859D01*
X164878061Y-97486969D01*
X164839923Y-97578418D01*
X164809969Y-97649733D01*
X164790071Y-97696437D01*
X164782103Y-97714058D01*
X164780850Y-97714310D01*
X164757758Y-97706443D01*
X164712353Y-97686283D01*
X164652824Y-97657417D01*
X164529096Y-97601203D01*
X164358837Y-97539740D01*
X164184578Y-97492670D01*
X164013133Y-97461177D01*
X163851317Y-97446443D01*
X163705944Y-97449650D01*
X163583829Y-97471979D01*
X163498601Y-97507409D01*
X163401809Y-97580017D01*
X163327297Y-97678518D01*
X163277199Y-97799883D01*
X163253649Y-97941080D01*
X163245355Y-98071215D01*
X163678285Y-98072400D01*
X163824285Y-98073624D01*
X163985771Y-98077972D01*
X164123725Y-98086178D01*
X164245281Y-98099039D01*
X164357577Y-98117354D01*
X164467747Y-98141919D01*
X164582929Y-98173533D01*
X164755268Y-98233709D01*
X164957975Y-98332806D01*
X165135876Y-98454190D01*
X165287217Y-98596155D01*
X165410243Y-98756993D01*
X165503199Y-98934997D01*
X165564330Y-99128460D01*
X165573904Y-99180565D01*
X165586177Y-99309533D01*
X165587722Y-99432151D01*
X165587990Y-99453437D01*
X165579842Y-99599722D01*
G37*
X165579842Y-99599722D02*
X165562232Y-99735833D01*
X165535659Y-99849214D01*
X165493259Y-99965867D01*
X165394976Y-100158110D01*
X165269350Y-100327247D01*
X165117681Y-100472126D01*
X164941271Y-100591594D01*
X164741420Y-100684499D01*
X164519429Y-100749689D01*
X164428907Y-100764392D01*
X164299552Y-100774611D01*
X164158675Y-100776909D01*
X164018050Y-100771472D01*
X163889449Y-100758485D01*
X163784643Y-100738133D01*
X163731979Y-100722109D01*
X163612369Y-100675219D01*
X163490783Y-100615688D01*
X163379765Y-100549971D01*
X163291859Y-100484524D01*
X163290778Y-100483579D01*
X163242607Y-100442736D01*
X163205545Y-100413653D01*
X163187537Y-100402572D01*
X163185568Y-100405217D01*
X163181113Y-100433794D01*
X163178018Y-100487094D01*
X163176857Y-100556786D01*
X163176857Y-100711000D01*
X162496500Y-100711000D01*
X162478389Y-100710997D01*
X162326490Y-100710731D01*
X162187078Y-100710070D01*
X162064118Y-100709062D01*
X161961579Y-100707758D01*
X161883426Y-100706205D01*
X161833625Y-100704454D01*
X161816143Y-100702553D01*
X161816550Y-100700893D01*
X161827988Y-100676377D01*
X161851962Y-100630317D01*
X161884179Y-100571018D01*
X161952215Y-100447929D01*
X161962190Y-99232689D01*
X163249429Y-99232689D01*
X163249935Y-99328703D01*
X163252387Y-99429587D01*
X163257190Y-99502507D01*
X163264695Y-99552212D01*
X163275250Y-99583449D01*
X163288828Y-99605755D01*
X163339962Y-99666561D01*
X163408475Y-99729863D01*
X163483568Y-99786265D01*
X163554440Y-99826370D01*
X163593761Y-99841085D01*
X163684302Y-99860677D01*
X163802555Y-99870694D01*
X163927232Y-99869177D01*
X164045627Y-99848574D01*
X164144449Y-99806011D01*
X164229948Y-99739571D01*
X164254000Y-99714995D01*
X164316622Y-99631185D01*
X164350504Y-99540850D01*
X164360679Y-99432151D01*
X164357922Y-99374725D01*
X164330661Y-99256507D01*
X164273390Y-99155039D01*
X164185068Y-99069179D01*
X164064651Y-98997784D01*
X163911097Y-98939714D01*
X163849193Y-98924475D01*
X163774251Y-98914041D01*
X163679937Y-98908246D01*
X163557857Y-98906298D01*
X163538026Y-98906299D01*
X163446696Y-98907414D01*
X163368244Y-98910108D01*
X163310471Y-98914029D01*
X163281179Y-98918824D01*
X163277808Y-98920380D01*
X163266910Y-98930154D01*
X163259192Y-98949794D01*
X163254119Y-98984585D01*
X163251157Y-99039809D01*
X163249772Y-99120750D01*
X163249429Y-99232689D01*
X161962190Y-99232689D01*
X161962714Y-99168857D01*
X161964275Y-98982561D01*
X161966458Y-98744965D01*
X161968750Y-98538698D01*
X161971335Y-98360842D01*
X161974400Y-98208481D01*
X161978128Y-98078696D01*
X161982705Y-97968572D01*
X161988316Y-97875190D01*
X161995147Y-97795635D01*
X162003383Y-97726988D01*
X162013208Y-97666333D01*
X162024808Y-97610752D01*
X162038368Y-97557329D01*
X162054073Y-97503146D01*
X162072109Y-97445286D01*
X162143161Y-97263898D01*
X162240464Y-97096258D01*
X162361641Y-96952732D01*
X162507803Y-96832570D01*
X162680057Y-96735020D01*
X162879515Y-96659331D01*
X163107285Y-96604753D01*
X163364477Y-96570535D01*
X163454368Y-96563730D01*
X163605760Y-96558755D01*
X163755814Y-96563235D01*
X163911554Y-96577927D01*
X164080005Y-96603584D01*
X164268193Y-96640962D01*
X164483143Y-96690818D01*
X164532828Y-96702881D01*
X164657601Y-96732565D01*
X164775861Y-96759898D01*
X164880436Y-96783263D01*
X164964154Y-96801047D01*
X165019845Y-96811636D01*
X165148333Y-96832740D01*
X164967695Y-97270549D01*
X164922512Y-97379859D01*
X164878061Y-97486969D01*
X164839923Y-97578418D01*
X164809969Y-97649733D01*
X164790071Y-97696437D01*
X164782103Y-97714058D01*
X164780850Y-97714310D01*
X164757758Y-97706443D01*
X164712353Y-97686283D01*
X164652824Y-97657417D01*
X164529096Y-97601203D01*
X164358837Y-97539740D01*
X164184578Y-97492670D01*
X164013133Y-97461177D01*
X163851317Y-97446443D01*
X163705944Y-97449650D01*
X163583829Y-97471979D01*
X163498601Y-97507409D01*
X163401809Y-97580017D01*
X163327297Y-97678518D01*
X163277199Y-97799883D01*
X163253649Y-97941080D01*
X163245355Y-98071215D01*
X163678285Y-98072400D01*
X163824285Y-98073624D01*
X163985771Y-98077972D01*
X164123725Y-98086178D01*
X164245281Y-98099039D01*
X164357577Y-98117354D01*
X164467747Y-98141919D01*
X164582929Y-98173533D01*
X164755268Y-98233709D01*
X164957975Y-98332806D01*
X165135876Y-98454190D01*
X165287217Y-98596155D01*
X165410243Y-98756993D01*
X165503199Y-98934997D01*
X165564330Y-99128460D01*
X165573904Y-99180565D01*
X165586177Y-99309533D01*
X165587722Y-99432151D01*
X165587990Y-99453437D01*
X165579842Y-99599722D01*
G36*
X171526337Y-93606839D02*
G01*
X171665779Y-93641005D01*
X171797955Y-93702325D01*
X171918699Y-93790810D01*
X172023846Y-93906470D01*
X172109230Y-94049313D01*
X172132121Y-94099633D01*
X172150666Y-94150636D01*
X172161072Y-94201624D01*
X172165633Y-94264691D01*
X172166643Y-94351929D01*
X172166032Y-94424539D01*
X172162350Y-94491270D01*
X172153322Y-94543334D01*
X172136694Y-94592686D01*
X172110212Y-94651286D01*
X172102552Y-94666902D01*
X172012006Y-94809893D01*
X171898125Y-94927543D01*
X171764141Y-95017089D01*
X171613286Y-95075772D01*
X171535881Y-95092147D01*
X171378849Y-95099810D01*
X171226753Y-95075016D01*
X171084054Y-95020306D01*
X170955212Y-94938223D01*
X170844686Y-94831309D01*
X170756936Y-94702107D01*
X170696423Y-94553158D01*
X170674283Y-94431265D01*
X170672288Y-94296751D01*
X170690295Y-94165908D01*
X170727446Y-94052572D01*
X170770372Y-93971543D01*
X170865933Y-93842987D01*
X170979221Y-93741527D01*
X171106071Y-93667172D01*
X171242318Y-93619933D01*
X171383795Y-93599818D01*
X171526337Y-93606839D01*
G37*
X171526337Y-93606839D02*
X171665779Y-93641005D01*
X171797955Y-93702325D01*
X171918699Y-93790810D01*
X172023846Y-93906470D01*
X172109230Y-94049313D01*
X172132121Y-94099633D01*
X172150666Y-94150636D01*
X172161072Y-94201624D01*
X172165633Y-94264691D01*
X172166643Y-94351929D01*
X172166032Y-94424539D01*
X172162350Y-94491270D01*
X172153322Y-94543334D01*
X172136694Y-94592686D01*
X172110212Y-94651286D01*
X172102552Y-94666902D01*
X172012006Y-94809893D01*
X171898125Y-94927543D01*
X171764141Y-95017089D01*
X171613286Y-95075772D01*
X171535881Y-95092147D01*
X171378849Y-95099810D01*
X171226753Y-95075016D01*
X171084054Y-95020306D01*
X170955212Y-94938223D01*
X170844686Y-94831309D01*
X170756936Y-94702107D01*
X170696423Y-94553158D01*
X170674283Y-94431265D01*
X170672288Y-94296751D01*
X170690295Y-94165908D01*
X170727446Y-94052572D01*
X170770372Y-93971543D01*
X170865933Y-93842987D01*
X170979221Y-93741527D01*
X171106071Y-93667172D01*
X171242318Y-93619933D01*
X171383795Y-93599818D01*
X171526337Y-93606839D01*
G36*
X161483255Y-99050433D02*
G01*
X161472247Y-99198502D01*
X161453229Y-99334798D01*
X161425349Y-99467375D01*
X161387754Y-99604286D01*
X161330743Y-99767936D01*
X161226036Y-99988857D01*
X161097598Y-100186734D01*
X160947393Y-100359697D01*
X160777387Y-100505876D01*
X160589545Y-100623401D01*
X160385832Y-100710402D01*
X160168212Y-100765009D01*
X160165593Y-100765447D01*
X160006553Y-100780750D01*
X159831809Y-100778707D01*
X159653820Y-100760579D01*
X159485046Y-100727624D01*
X159337948Y-100681101D01*
X159275161Y-100652791D01*
X159193387Y-100609761D01*
X159109359Y-100560546D01*
X159031845Y-100510563D01*
X158969612Y-100465229D01*
X158931429Y-100429960D01*
X158922663Y-100420277D01*
X158912214Y-100416892D01*
X158905229Y-100433696D01*
X158900082Y-100476045D01*
X158895143Y-100549295D01*
X158886072Y-100701929D01*
X157496360Y-100711433D01*
X157544439Y-100629393D01*
X157547305Y-100624543D01*
X157561285Y-100601772D01*
X157573969Y-100581487D01*
X157585423Y-100561925D01*
X157595715Y-100541324D01*
X157604915Y-100517920D01*
X157613090Y-100489953D01*
X157620309Y-100455660D01*
X157626640Y-100413278D01*
X157632151Y-100361046D01*
X157636910Y-100297200D01*
X157640985Y-100219979D01*
X157644446Y-100127620D01*
X157647359Y-100018361D01*
X157649794Y-99890440D01*
X157651818Y-99742094D01*
X157653452Y-99576556D01*
X158976786Y-99576556D01*
X159067500Y-99636057D01*
X159102386Y-99657491D01*
X159182265Y-99700311D01*
X159258000Y-99734410D01*
X159291168Y-99745955D01*
X159396705Y-99769004D01*
X159530143Y-99780773D01*
X159597996Y-99783222D01*
X159660980Y-99782666D01*
X159707866Y-99776375D01*
X159749920Y-99762626D01*
X159798409Y-99739692D01*
X159891595Y-99678259D01*
X159972324Y-99591358D01*
X160036945Y-99479369D01*
X160086073Y-99340539D01*
X160120321Y-99173111D01*
X160140306Y-98975329D01*
X160146641Y-98745440D01*
X160146333Y-98693175D01*
X160137225Y-98451015D01*
X160115109Y-98240302D01*
X160079447Y-98058814D01*
X160029701Y-97904327D01*
X159965333Y-97774619D01*
X159885805Y-97667466D01*
X159852812Y-97634763D01*
X159750560Y-97566632D01*
X159630526Y-97525173D01*
X159497910Y-97510622D01*
X159357913Y-97523214D01*
X159215733Y-97563185D01*
X159076572Y-97630771D01*
X158976786Y-97690584D01*
X158976786Y-99576556D01*
X157653452Y-99576556D01*
X157653501Y-99571562D01*
X157654909Y-99377081D01*
X157656112Y-99156888D01*
X157657177Y-98909221D01*
X157658173Y-98632318D01*
X157659168Y-98324417D01*
X157660231Y-97983756D01*
X157661429Y-97608572D01*
X157670500Y-94841786D01*
X158391679Y-94837042D01*
X158444124Y-94836723D01*
X158598429Y-94836089D01*
X158739564Y-94835961D01*
X158863677Y-94836311D01*
X158966915Y-94837112D01*
X159045426Y-94838340D01*
X159095357Y-94839967D01*
X159112857Y-94841967D01*
X159110618Y-94848305D01*
X159093917Y-94878356D01*
X159066255Y-94922057D01*
X159063495Y-94926235D01*
X159042048Y-94959977D01*
X159024065Y-94992806D01*
X159009242Y-95028105D01*
X158997274Y-95069255D01*
X158987856Y-95119638D01*
X158980683Y-95182634D01*
X158975450Y-95261627D01*
X158971852Y-95359997D01*
X158969584Y-95481126D01*
X158968342Y-95628396D01*
X158967821Y-95805188D01*
X158967714Y-96014884D01*
X158967905Y-96178603D01*
X158968487Y-96339339D01*
X158969419Y-96485083D01*
X158970659Y-96612286D01*
X158972164Y-96717400D01*
X158973893Y-96796875D01*
X158975802Y-96847163D01*
X158977850Y-96864714D01*
X158984455Y-96861990D01*
X159013490Y-96842807D01*
X159054957Y-96811303D01*
X159115072Y-96768936D01*
X159228021Y-96706511D01*
X159357116Y-96650828D01*
X159490309Y-96607525D01*
X159602215Y-96585444D01*
X159741587Y-96571368D01*
X159892426Y-96566492D01*
X160043093Y-96570820D01*
X160181946Y-96584359D01*
X160297345Y-96607115D01*
X160414847Y-96645447D01*
X160610869Y-96738371D01*
X160792371Y-96861908D01*
X160956004Y-97013212D01*
X161098419Y-97189440D01*
X161216270Y-97387746D01*
X161245528Y-97448556D01*
X161327518Y-97653670D01*
X161391619Y-97876285D01*
X161438642Y-98120325D01*
X161469395Y-98389713D01*
X161484690Y-98688374D01*
X161485400Y-98745440D01*
X161487105Y-98882537D01*
X161483255Y-99050433D01*
G37*
X161483255Y-99050433D02*
X161472247Y-99198502D01*
X161453229Y-99334798D01*
X161425349Y-99467375D01*
X161387754Y-99604286D01*
X161330743Y-99767936D01*
X161226036Y-99988857D01*
X161097598Y-100186734D01*
X160947393Y-100359697D01*
X160777387Y-100505876D01*
X160589545Y-100623401D01*
X160385832Y-100710402D01*
X160168212Y-100765009D01*
X160165593Y-100765447D01*
X160006553Y-100780750D01*
X159831809Y-100778707D01*
X159653820Y-100760579D01*
X159485046Y-100727624D01*
X159337948Y-100681101D01*
X159275161Y-100652791D01*
X159193387Y-100609761D01*
X159109359Y-100560546D01*
X159031845Y-100510563D01*
X158969612Y-100465229D01*
X158931429Y-100429960D01*
X158922663Y-100420277D01*
X158912214Y-100416892D01*
X158905229Y-100433696D01*
X158900082Y-100476045D01*
X158895143Y-100549295D01*
X158886072Y-100701929D01*
X157496360Y-100711433D01*
X157544439Y-100629393D01*
X157547305Y-100624543D01*
X157561285Y-100601772D01*
X157573969Y-100581487D01*
X157585423Y-100561925D01*
X157595715Y-100541324D01*
X157604915Y-100517920D01*
X157613090Y-100489953D01*
X157620309Y-100455660D01*
X157626640Y-100413278D01*
X157632151Y-100361046D01*
X157636910Y-100297200D01*
X157640985Y-100219979D01*
X157644446Y-100127620D01*
X157647359Y-100018361D01*
X157649794Y-99890440D01*
X157651818Y-99742094D01*
X157653452Y-99576556D01*
X158976786Y-99576556D01*
X159067500Y-99636057D01*
X159102386Y-99657491D01*
X159182265Y-99700311D01*
X159258000Y-99734410D01*
X159291168Y-99745955D01*
X159396705Y-99769004D01*
X159530143Y-99780773D01*
X159597996Y-99783222D01*
X159660980Y-99782666D01*
X159707866Y-99776375D01*
X159749920Y-99762626D01*
X159798409Y-99739692D01*
X159891595Y-99678259D01*
X159972324Y-99591358D01*
X160036945Y-99479369D01*
X160086073Y-99340539D01*
X160120321Y-99173111D01*
X160140306Y-98975329D01*
X160146641Y-98745440D01*
X160146333Y-98693175D01*
X160137225Y-98451015D01*
X160115109Y-98240302D01*
X160079447Y-98058814D01*
X160029701Y-97904327D01*
X159965333Y-97774619D01*
X159885805Y-97667466D01*
X159852812Y-97634763D01*
X159750560Y-97566632D01*
X159630526Y-97525173D01*
X159497910Y-97510622D01*
X159357913Y-97523214D01*
X159215733Y-97563185D01*
X159076572Y-97630771D01*
X158976786Y-97690584D01*
X158976786Y-99576556D01*
X157653452Y-99576556D01*
X157653501Y-99571562D01*
X157654909Y-99377081D01*
X157656112Y-99156888D01*
X157657177Y-98909221D01*
X157658173Y-98632318D01*
X157659168Y-98324417D01*
X157660231Y-97983756D01*
X157661429Y-97608572D01*
X157670500Y-94841786D01*
X158391679Y-94837042D01*
X158444124Y-94836723D01*
X158598429Y-94836089D01*
X158739564Y-94835961D01*
X158863677Y-94836311D01*
X158966915Y-94837112D01*
X159045426Y-94838340D01*
X159095357Y-94839967D01*
X159112857Y-94841967D01*
X159110618Y-94848305D01*
X159093917Y-94878356D01*
X159066255Y-94922057D01*
X159063495Y-94926235D01*
X159042048Y-94959977D01*
X159024065Y-94992806D01*
X159009242Y-95028105D01*
X158997274Y-95069255D01*
X158987856Y-95119638D01*
X158980683Y-95182634D01*
X158975450Y-95261627D01*
X158971852Y-95359997D01*
X158969584Y-95481126D01*
X158968342Y-95628396D01*
X158967821Y-95805188D01*
X158967714Y-96014884D01*
X158967905Y-96178603D01*
X158968487Y-96339339D01*
X158969419Y-96485083D01*
X158970659Y-96612286D01*
X158972164Y-96717400D01*
X158973893Y-96796875D01*
X158975802Y-96847163D01*
X158977850Y-96864714D01*
X158984455Y-96861990D01*
X159013490Y-96842807D01*
X159054957Y-96811303D01*
X159115072Y-96768936D01*
X159228021Y-96706511D01*
X159357116Y-96650828D01*
X159490309Y-96607525D01*
X159602215Y-96585444D01*
X159741587Y-96571368D01*
X159892426Y-96566492D01*
X160043093Y-96570820D01*
X160181946Y-96584359D01*
X160297345Y-96607115D01*
X160414847Y-96645447D01*
X160610869Y-96738371D01*
X160792371Y-96861908D01*
X160956004Y-97013212D01*
X161098419Y-97189440D01*
X161216270Y-97387746D01*
X161245528Y-97448556D01*
X161327518Y-97653670D01*
X161391619Y-97876285D01*
X161438642Y-98120325D01*
X161469395Y-98389713D01*
X161484690Y-98688374D01*
X161485400Y-98745440D01*
X161487105Y-98882537D01*
X161483255Y-99050433D01*
G36*
X177757560Y-100887553D02*
G01*
X177755241Y-101008746D01*
X177752425Y-101111940D01*
X177749064Y-101198635D01*
X177745110Y-101270332D01*
X177740517Y-101328530D01*
X177735238Y-101374730D01*
X177729225Y-101410433D01*
X177722430Y-101437137D01*
X177714808Y-101456345D01*
X177706309Y-101469555D01*
X177696889Y-101478268D01*
X177686498Y-101483985D01*
X177675090Y-101488206D01*
X177662618Y-101492430D01*
X177649034Y-101498159D01*
X177641391Y-101501030D01*
X177627371Y-101504165D01*
X177606538Y-101507037D01*
X177577421Y-101509659D01*
X177538544Y-101512040D01*
X177488434Y-101514194D01*
X177425617Y-101516130D01*
X177348620Y-101517862D01*
X177255969Y-101519400D01*
X177146190Y-101520756D01*
X177017810Y-101521941D01*
X176869354Y-101522968D01*
X176699350Y-101523846D01*
X176506323Y-101524589D01*
X176288800Y-101525207D01*
X176045308Y-101525713D01*
X175774371Y-101526116D01*
X175474517Y-101526430D01*
X175144273Y-101526665D01*
X174782164Y-101526834D01*
X174386716Y-101526947D01*
X173956456Y-101527016D01*
X173820108Y-101527029D01*
X173399186Y-101527038D01*
X173012647Y-101526985D01*
X172659034Y-101526860D01*
X172336890Y-101526652D01*
X172044761Y-101526351D01*
X171781188Y-101525946D01*
X171544716Y-101525426D01*
X171333890Y-101524782D01*
X171147251Y-101524002D01*
X170983345Y-101523076D01*
X170840715Y-101521993D01*
X170717905Y-101520743D01*
X170613458Y-101519315D01*
X170525919Y-101517698D01*
X170453830Y-101515883D01*
X170395736Y-101513858D01*
X170350180Y-101511613D01*
X170315707Y-101509137D01*
X170290859Y-101506420D01*
X170274181Y-101503451D01*
X170264217Y-101500220D01*
X170261046Y-101498782D01*
X170248067Y-101494058D01*
X170236165Y-101490608D01*
X170225292Y-101486930D01*
X170215398Y-101481521D01*
X170206437Y-101472879D01*
X170198359Y-101459502D01*
X170191116Y-101439886D01*
X170184661Y-101412531D01*
X170178945Y-101375933D01*
X170173919Y-101328590D01*
X170169536Y-101269000D01*
X170165747Y-101195659D01*
X170162504Y-101107067D01*
X170159759Y-101001720D01*
X170157463Y-100878117D01*
X170155568Y-100734754D01*
X170154946Y-100668367D01*
X170633373Y-100668367D01*
X170633898Y-100674725D01*
X170643521Y-100679877D01*
X170665264Y-100683950D01*
X170702148Y-100687070D01*
X170757193Y-100689365D01*
X170833419Y-100690959D01*
X170933848Y-100691979D01*
X171061501Y-100692551D01*
X171219398Y-100692802D01*
X171410559Y-100692857D01*
X172211314Y-100692857D01*
X172143621Y-100570393D01*
X172075929Y-100447929D01*
X172075929Y-96891929D01*
X172143621Y-96769465D01*
X172211314Y-96647000D01*
X170779993Y-96647000D01*
X170774818Y-98529322D01*
X170769643Y-100411643D01*
X170718903Y-100520008D01*
X170692151Y-100573719D01*
X170661860Y-100627524D01*
X170638984Y-100660615D01*
X170638926Y-100660679D01*
X170633373Y-100668367D01*
X170154946Y-100668367D01*
X170154026Y-100570129D01*
X170152789Y-100382740D01*
X170151808Y-100171085D01*
X170151035Y-99933661D01*
X170150422Y-99668966D01*
X170149921Y-99375498D01*
X170149484Y-99051753D01*
X170149061Y-98696230D01*
X170148605Y-98307426D01*
X170148068Y-97883840D01*
X170147999Y-97832560D01*
X170147400Y-97411657D01*
X170146827Y-97025362D01*
X170146323Y-96672172D01*
X170145930Y-96350584D01*
X170145690Y-96059094D01*
X170145646Y-95796200D01*
X170145840Y-95560398D01*
X170146314Y-95350186D01*
X170147112Y-95164060D01*
X170148274Y-95000517D01*
X170149844Y-94858055D01*
X170151864Y-94735170D01*
X170154377Y-94630359D01*
X170157424Y-94542119D01*
X170161049Y-94468947D01*
X170165293Y-94409340D01*
X170170198Y-94361795D01*
X170175808Y-94324808D01*
X170182165Y-94296878D01*
X170189311Y-94276500D01*
X170197288Y-94262171D01*
X170206139Y-94252390D01*
X170215906Y-94245651D01*
X170226632Y-94240454D01*
X170238358Y-94235293D01*
X170251128Y-94228667D01*
X170254865Y-94226556D01*
X170311405Y-94206118D01*
X170373300Y-94197717D01*
X170443072Y-94197720D01*
X170444234Y-94356467D01*
X170444529Y-94374735D01*
X170466706Y-94560427D01*
X170523188Y-94735147D01*
X170613192Y-94897043D01*
X170735932Y-95044265D01*
X170801798Y-95104311D01*
X170948454Y-95203838D01*
X171108470Y-95273242D01*
X171277185Y-95312487D01*
X171449939Y-95321537D01*
X171622072Y-95300353D01*
X171788922Y-95248899D01*
X171926080Y-95177429D01*
X172533127Y-95177429D01*
X172612957Y-95234862D01*
X172680470Y-95288841D01*
X172775603Y-95376886D01*
X172883507Y-95487230D01*
X173000097Y-95615670D01*
X173121285Y-95758000D01*
X173152494Y-95796062D01*
X173205629Y-95861343D01*
X173275083Y-95946988D01*
X173358556Y-96050140D01*
X173453746Y-96167939D01*
X173558354Y-96297528D01*
X173670077Y-96436047D01*
X173786615Y-96580639D01*
X173840067Y-96647000D01*
X173905667Y-96728444D01*
X174024932Y-96876603D01*
X174142109Y-97022260D01*
X174254896Y-97162554D01*
X174360994Y-97294627D01*
X174458101Y-97415621D01*
X174543916Y-97522678D01*
X174616138Y-97612938D01*
X174672466Y-97683543D01*
X174710599Y-97731635D01*
X174728237Y-97754355D01*
X174729692Y-97762893D01*
X174724850Y-97779132D01*
X174712302Y-97804679D01*
X174690797Y-97841347D01*
X174659080Y-97890949D01*
X174615900Y-97955295D01*
X174560005Y-98036198D01*
X174490141Y-98135471D01*
X174405057Y-98254926D01*
X174303499Y-98396374D01*
X174184216Y-98561629D01*
X174045954Y-98752501D01*
X173887462Y-98970804D01*
X173761177Y-99144571D01*
X173607105Y-99356407D01*
X173471580Y-99542440D01*
X173353024Y-99704734D01*
X173249861Y-99845354D01*
X173160515Y-99966365D01*
X173083411Y-100069832D01*
X173016972Y-100157818D01*
X172959623Y-100232390D01*
X172909786Y-100295610D01*
X172865886Y-100349545D01*
X172826347Y-100396258D01*
X172789593Y-100437814D01*
X172754047Y-100476279D01*
X172718135Y-100513715D01*
X172680278Y-100552189D01*
X172540771Y-100692857D01*
X174416357Y-100692933D01*
X174410464Y-100579275D01*
X174410179Y-100573564D01*
X174409060Y-100528127D01*
X174411181Y-100484593D01*
X174417958Y-100440576D01*
X174430812Y-100393693D01*
X174451160Y-100341558D01*
X174480420Y-100281786D01*
X174520012Y-100211994D01*
X174571353Y-100129797D01*
X174635862Y-100032809D01*
X174714957Y-99918647D01*
X174810057Y-99784925D01*
X174922581Y-99629260D01*
X175053946Y-99449265D01*
X175205572Y-99242557D01*
X175740786Y-98513911D01*
X175745501Y-99358755D01*
X175745919Y-99437562D01*
X175746656Y-99649832D01*
X175746321Y-99830381D01*
X175744519Y-99982628D01*
X175740856Y-100109988D01*
X175734936Y-100215878D01*
X175726367Y-100303715D01*
X175714751Y-100376916D01*
X175699697Y-100438898D01*
X175680807Y-100493076D01*
X175657689Y-100542869D01*
X175629947Y-100591693D01*
X175597187Y-100642964D01*
X175564256Y-100692857D01*
X177275704Y-100692857D01*
X177231496Y-100633893D01*
X177224572Y-100624565D01*
X177169221Y-100539070D01*
X177131064Y-100452644D01*
X177106008Y-100353613D01*
X177089959Y-100230304D01*
X177089518Y-100224929D01*
X177087189Y-100174067D01*
X177085087Y-100089206D01*
X177083219Y-99972286D01*
X177081596Y-99825246D01*
X177080227Y-99650026D01*
X177079120Y-99448563D01*
X177078285Y-99222798D01*
X177077732Y-98974669D01*
X177077468Y-98706115D01*
X177077503Y-98419077D01*
X177077847Y-98115492D01*
X177078508Y-97797300D01*
X177079209Y-97511881D01*
X177079958Y-97201196D01*
X177080696Y-96923226D01*
X177081515Y-96676022D01*
X177082507Y-96457637D01*
X177083766Y-96266125D01*
X177085383Y-96099537D01*
X177087452Y-95955925D01*
X177090065Y-95833344D01*
X177093315Y-95729844D01*
X177097293Y-95643479D01*
X177102094Y-95572301D01*
X177107809Y-95514363D01*
X177114532Y-95467717D01*
X177122354Y-95430416D01*
X177131368Y-95400512D01*
X177141667Y-95376058D01*
X177153344Y-95355106D01*
X177166492Y-95335709D01*
X177181202Y-95315920D01*
X177197567Y-95293791D01*
X177213396Y-95271615D01*
X177243991Y-95227769D01*
X177262317Y-95200107D01*
X177262759Y-95198949D01*
X177256360Y-95193718D01*
X177233779Y-95189353D01*
X177192502Y-95185788D01*
X177130017Y-95182954D01*
X177043812Y-95180787D01*
X176931373Y-95179217D01*
X176790188Y-95178179D01*
X176617745Y-95177605D01*
X176411530Y-95177429D01*
X175547060Y-95177429D01*
X175592621Y-95231574D01*
X175619026Y-95268763D01*
X175662978Y-95356446D01*
X175701495Y-95465499D01*
X175730893Y-95586468D01*
X175732766Y-95597952D01*
X175738341Y-95658492D01*
X175742563Y-95752056D01*
X175745443Y-95879292D01*
X175746992Y-96040846D01*
X175747221Y-96237368D01*
X175746143Y-96469504D01*
X175740786Y-97244508D01*
X175187429Y-96544742D01*
X175171579Y-96524698D01*
X175031253Y-96347052D01*
X174911453Y-96194914D01*
X174810270Y-96065698D01*
X174725800Y-95956817D01*
X174656135Y-95865685D01*
X174599368Y-95789714D01*
X174553594Y-95726317D01*
X174516906Y-95672908D01*
X174487396Y-95626901D01*
X174463159Y-95585707D01*
X174442288Y-95546741D01*
X174422877Y-95507415D01*
X174393015Y-95437805D01*
X174373724Y-95364372D01*
X174368592Y-95285165D01*
X174369108Y-95177429D01*
X172533127Y-95177429D01*
X171926080Y-95177429D01*
X171945830Y-95167138D01*
X172088136Y-95055032D01*
X172127695Y-95015510D01*
X172244620Y-94869175D01*
X172327588Y-94710367D01*
X172377043Y-94538063D01*
X172393429Y-94351238D01*
X172393429Y-94197715D01*
X174997830Y-94197714D01*
X175160540Y-94197707D01*
X175510089Y-94197660D01*
X175825856Y-94197626D01*
X176109588Y-94197673D01*
X176363031Y-94197872D01*
X176587931Y-94198291D01*
X176786034Y-94198998D01*
X176959087Y-94200065D01*
X177108835Y-94201558D01*
X177237025Y-94203547D01*
X177345403Y-94206102D01*
X177435715Y-94209291D01*
X177509707Y-94213183D01*
X177569125Y-94217848D01*
X177615716Y-94223354D01*
X177651226Y-94229771D01*
X177677400Y-94237167D01*
X177695986Y-94245611D01*
X177708728Y-94255173D01*
X177717374Y-94265922D01*
X177723670Y-94277926D01*
X177729360Y-94291255D01*
X177736193Y-94305978D01*
X177736316Y-94306218D01*
X177739633Y-94315856D01*
X177742676Y-94331993D01*
X177745456Y-94356121D01*
X177747985Y-94389727D01*
X177750274Y-94434301D01*
X177752334Y-94491333D01*
X177754179Y-94562311D01*
X177755817Y-94648725D01*
X177757263Y-94752064D01*
X177758526Y-94873818D01*
X177759619Y-95015475D01*
X177760553Y-95178526D01*
X177761340Y-95364458D01*
X177761991Y-95574762D01*
X177762517Y-95810927D01*
X177762931Y-96074442D01*
X177763244Y-96366797D01*
X177763467Y-96689480D01*
X177763612Y-97043981D01*
X177763691Y-97431789D01*
X177763714Y-97854393D01*
X177763715Y-97937414D01*
X177763755Y-98355614D01*
X177763817Y-98739313D01*
X177763854Y-99090009D01*
X177763817Y-99409204D01*
X177763662Y-99698398D01*
X177763339Y-99959091D01*
X177762801Y-100192784D01*
X177762001Y-100400976D01*
X177760892Y-100585168D01*
X177759916Y-100692857D01*
X177759428Y-100746860D01*
X177757560Y-100887553D01*
G37*
X177757560Y-100887553D02*
X177755241Y-101008746D01*
X177752425Y-101111940D01*
X177749064Y-101198635D01*
X177745110Y-101270332D01*
X177740517Y-101328530D01*
X177735238Y-101374730D01*
X177729225Y-101410433D01*
X177722430Y-101437137D01*
X177714808Y-101456345D01*
X177706309Y-101469555D01*
X177696889Y-101478268D01*
X177686498Y-101483985D01*
X177675090Y-101488206D01*
X177662618Y-101492430D01*
X177649034Y-101498159D01*
X177641391Y-101501030D01*
X177627371Y-101504165D01*
X177606538Y-101507037D01*
X177577421Y-101509659D01*
X177538544Y-101512040D01*
X177488434Y-101514194D01*
X177425617Y-101516130D01*
X177348620Y-101517862D01*
X177255969Y-101519400D01*
X177146190Y-101520756D01*
X177017810Y-101521941D01*
X176869354Y-101522968D01*
X176699350Y-101523846D01*
X176506323Y-101524589D01*
X176288800Y-101525207D01*
X176045308Y-101525713D01*
X175774371Y-101526116D01*
X175474517Y-101526430D01*
X175144273Y-101526665D01*
X174782164Y-101526834D01*
X174386716Y-101526947D01*
X173956456Y-101527016D01*
X173820108Y-101527029D01*
X173399186Y-101527038D01*
X173012647Y-101526985D01*
X172659034Y-101526860D01*
X172336890Y-101526652D01*
X172044761Y-101526351D01*
X171781188Y-101525946D01*
X171544716Y-101525426D01*
X171333890Y-101524782D01*
X171147251Y-101524002D01*
X170983345Y-101523076D01*
X170840715Y-101521993D01*
X170717905Y-101520743D01*
X170613458Y-101519315D01*
X170525919Y-101517698D01*
X170453830Y-101515883D01*
X170395736Y-101513858D01*
X170350180Y-101511613D01*
X170315707Y-101509137D01*
X170290859Y-101506420D01*
X170274181Y-101503451D01*
X170264217Y-101500220D01*
X170261046Y-101498782D01*
X170248067Y-101494058D01*
X170236165Y-101490608D01*
X170225292Y-101486930D01*
X170215398Y-101481521D01*
X170206437Y-101472879D01*
X170198359Y-101459502D01*
X170191116Y-101439886D01*
X170184661Y-101412531D01*
X170178945Y-101375933D01*
X170173919Y-101328590D01*
X170169536Y-101269000D01*
X170165747Y-101195659D01*
X170162504Y-101107067D01*
X170159759Y-101001720D01*
X170157463Y-100878117D01*
X170155568Y-100734754D01*
X170154946Y-100668367D01*
X170633373Y-100668367D01*
X170633898Y-100674725D01*
X170643521Y-100679877D01*
X170665264Y-100683950D01*
X170702148Y-100687070D01*
X170757193Y-100689365D01*
X170833419Y-100690959D01*
X170933848Y-100691979D01*
X171061501Y-100692551D01*
X171219398Y-100692802D01*
X171410559Y-100692857D01*
X172211314Y-100692857D01*
X172143621Y-100570393D01*
X172075929Y-100447929D01*
X172075929Y-96891929D01*
X172143621Y-96769465D01*
X172211314Y-96647000D01*
X170779993Y-96647000D01*
X170774818Y-98529322D01*
X170769643Y-100411643D01*
X170718903Y-100520008D01*
X170692151Y-100573719D01*
X170661860Y-100627524D01*
X170638984Y-100660615D01*
X170638926Y-100660679D01*
X170633373Y-100668367D01*
X170154946Y-100668367D01*
X170154026Y-100570129D01*
X170152789Y-100382740D01*
X170151808Y-100171085D01*
X170151035Y-99933661D01*
X170150422Y-99668966D01*
X170149921Y-99375498D01*
X170149484Y-99051753D01*
X170149061Y-98696230D01*
X170148605Y-98307426D01*
X170148068Y-97883840D01*
X170147999Y-97832560D01*
X170147400Y-97411657D01*
X170146827Y-97025362D01*
X170146323Y-96672172D01*
X170145930Y-96350584D01*
X170145690Y-96059094D01*
X170145646Y-95796200D01*
X170145840Y-95560398D01*
X170146314Y-95350186D01*
X170147112Y-95164060D01*
X170148274Y-95000517D01*
X170149844Y-94858055D01*
X170151864Y-94735170D01*
X170154377Y-94630359D01*
X170157424Y-94542119D01*
X170161049Y-94468947D01*
X170165293Y-94409340D01*
X170170198Y-94361795D01*
X170175808Y-94324808D01*
X170182165Y-94296878D01*
X170189311Y-94276500D01*
X170197288Y-94262171D01*
X170206139Y-94252390D01*
X170215906Y-94245651D01*
X170226632Y-94240454D01*
X170238358Y-94235293D01*
X170251128Y-94228667D01*
X170254865Y-94226556D01*
X170311405Y-94206118D01*
X170373300Y-94197717D01*
X170443072Y-94197720D01*
X170444234Y-94356467D01*
X170444529Y-94374735D01*
X170466706Y-94560427D01*
X170523188Y-94735147D01*
X170613192Y-94897043D01*
X170735932Y-95044265D01*
X170801798Y-95104311D01*
X170948454Y-95203838D01*
X171108470Y-95273242D01*
X171277185Y-95312487D01*
X171449939Y-95321537D01*
X171622072Y-95300353D01*
X171788922Y-95248899D01*
X171926080Y-95177429D01*
X172533127Y-95177429D01*
X172612957Y-95234862D01*
X172680470Y-95288841D01*
X172775603Y-95376886D01*
X172883507Y-95487230D01*
X173000097Y-95615670D01*
X173121285Y-95758000D01*
X173152494Y-95796062D01*
X173205629Y-95861343D01*
X173275083Y-95946988D01*
X173358556Y-96050140D01*
X173453746Y-96167939D01*
X173558354Y-96297528D01*
X173670077Y-96436047D01*
X173786615Y-96580639D01*
X173840067Y-96647000D01*
X173905667Y-96728444D01*
X174024932Y-96876603D01*
X174142109Y-97022260D01*
X174254896Y-97162554D01*
X174360994Y-97294627D01*
X174458101Y-97415621D01*
X174543916Y-97522678D01*
X174616138Y-97612938D01*
X174672466Y-97683543D01*
X174710599Y-97731635D01*
X174728237Y-97754355D01*
X174729692Y-97762893D01*
X174724850Y-97779132D01*
X174712302Y-97804679D01*
X174690797Y-97841347D01*
X174659080Y-97890949D01*
X174615900Y-97955295D01*
X174560005Y-98036198D01*
X174490141Y-98135471D01*
X174405057Y-98254926D01*
X174303499Y-98396374D01*
X174184216Y-98561629D01*
X174045954Y-98752501D01*
X173887462Y-98970804D01*
X173761177Y-99144571D01*
X173607105Y-99356407D01*
X173471580Y-99542440D01*
X173353024Y-99704734D01*
X173249861Y-99845354D01*
X173160515Y-99966365D01*
X173083411Y-100069832D01*
X173016972Y-100157818D01*
X172959623Y-100232390D01*
X172909786Y-100295610D01*
X172865886Y-100349545D01*
X172826347Y-100396258D01*
X172789593Y-100437814D01*
X172754047Y-100476279D01*
X172718135Y-100513715D01*
X172680278Y-100552189D01*
X172540771Y-100692857D01*
X174416357Y-100692933D01*
X174410464Y-100579275D01*
X174410179Y-100573564D01*
X174409060Y-100528127D01*
X174411181Y-100484593D01*
X174417958Y-100440576D01*
X174430812Y-100393693D01*
X174451160Y-100341558D01*
X174480420Y-100281786D01*
X174520012Y-100211994D01*
X174571353Y-100129797D01*
X174635862Y-100032809D01*
X174714957Y-99918647D01*
X174810057Y-99784925D01*
X174922581Y-99629260D01*
X175053946Y-99449265D01*
X175205572Y-99242557D01*
X175740786Y-98513911D01*
X175745501Y-99358755D01*
X175745919Y-99437562D01*
X175746656Y-99649832D01*
X175746321Y-99830381D01*
X175744519Y-99982628D01*
X175740856Y-100109988D01*
X175734936Y-100215878D01*
X175726367Y-100303715D01*
X175714751Y-100376916D01*
X175699697Y-100438898D01*
X175680807Y-100493076D01*
X175657689Y-100542869D01*
X175629947Y-100591693D01*
X175597187Y-100642964D01*
X175564256Y-100692857D01*
X177275704Y-100692857D01*
X177231496Y-100633893D01*
X177224572Y-100624565D01*
X177169221Y-100539070D01*
X177131064Y-100452644D01*
X177106008Y-100353613D01*
X177089959Y-100230304D01*
X177089518Y-100224929D01*
X177087189Y-100174067D01*
X177085087Y-100089206D01*
X177083219Y-99972286D01*
X177081596Y-99825246D01*
X177080227Y-99650026D01*
X177079120Y-99448563D01*
X177078285Y-99222798D01*
X177077732Y-98974669D01*
X177077468Y-98706115D01*
X177077503Y-98419077D01*
X177077847Y-98115492D01*
X177078508Y-97797300D01*
X177079209Y-97511881D01*
X177079958Y-97201196D01*
X177080696Y-96923226D01*
X177081515Y-96676022D01*
X177082507Y-96457637D01*
X177083766Y-96266125D01*
X177085383Y-96099537D01*
X177087452Y-95955925D01*
X177090065Y-95833344D01*
X177093315Y-95729844D01*
X177097293Y-95643479D01*
X177102094Y-95572301D01*
X177107809Y-95514363D01*
X177114532Y-95467717D01*
X177122354Y-95430416D01*
X177131368Y-95400512D01*
X177141667Y-95376058D01*
X177153344Y-95355106D01*
X177166492Y-95335709D01*
X177181202Y-95315920D01*
X177197567Y-95293791D01*
X177213396Y-95271615D01*
X177243991Y-95227769D01*
X177262317Y-95200107D01*
X177262759Y-95198949D01*
X177256360Y-95193718D01*
X177233779Y-95189353D01*
X177192502Y-95185788D01*
X177130017Y-95182954D01*
X177043812Y-95180787D01*
X176931373Y-95179217D01*
X176790188Y-95178179D01*
X176617745Y-95177605D01*
X176411530Y-95177429D01*
X175547060Y-95177429D01*
X175592621Y-95231574D01*
X175619026Y-95268763D01*
X175662978Y-95356446D01*
X175701495Y-95465499D01*
X175730893Y-95586468D01*
X175732766Y-95597952D01*
X175738341Y-95658492D01*
X175742563Y-95752056D01*
X175745443Y-95879292D01*
X175746992Y-96040846D01*
X175747221Y-96237368D01*
X175746143Y-96469504D01*
X175740786Y-97244508D01*
X175187429Y-96544742D01*
X175171579Y-96524698D01*
X175031253Y-96347052D01*
X174911453Y-96194914D01*
X174810270Y-96065698D01*
X174725800Y-95956817D01*
X174656135Y-95865685D01*
X174599368Y-95789714D01*
X174553594Y-95726317D01*
X174516906Y-95672908D01*
X174487396Y-95626901D01*
X174463159Y-95585707D01*
X174442288Y-95546741D01*
X174422877Y-95507415D01*
X174393015Y-95437805D01*
X174373724Y-95364372D01*
X174368592Y-95285165D01*
X174369108Y-95177429D01*
X172533127Y-95177429D01*
X171926080Y-95177429D01*
X171945830Y-95167138D01*
X172088136Y-95055032D01*
X172127695Y-95015510D01*
X172244620Y-94869175D01*
X172327588Y-94710367D01*
X172377043Y-94538063D01*
X172393429Y-94351238D01*
X172393429Y-94197715D01*
X174997830Y-94197714D01*
X175160540Y-94197707D01*
X175510089Y-94197660D01*
X175825856Y-94197626D01*
X176109588Y-94197673D01*
X176363031Y-94197872D01*
X176587931Y-94198291D01*
X176786034Y-94198998D01*
X176959087Y-94200065D01*
X177108835Y-94201558D01*
X177237025Y-94203547D01*
X177345403Y-94206102D01*
X177435715Y-94209291D01*
X177509707Y-94213183D01*
X177569125Y-94217848D01*
X177615716Y-94223354D01*
X177651226Y-94229771D01*
X177677400Y-94237167D01*
X177695986Y-94245611D01*
X177708728Y-94255173D01*
X177717374Y-94265922D01*
X177723670Y-94277926D01*
X177729360Y-94291255D01*
X177736193Y-94305978D01*
X177736316Y-94306218D01*
X177739633Y-94315856D01*
X177742676Y-94331993D01*
X177745456Y-94356121D01*
X177747985Y-94389727D01*
X177750274Y-94434301D01*
X177752334Y-94491333D01*
X177754179Y-94562311D01*
X177755817Y-94648725D01*
X177757263Y-94752064D01*
X177758526Y-94873818D01*
X177759619Y-95015475D01*
X177760553Y-95178526D01*
X177761340Y-95364458D01*
X177761991Y-95574762D01*
X177762517Y-95810927D01*
X177762931Y-96074442D01*
X177763244Y-96366797D01*
X177763467Y-96689480D01*
X177763612Y-97043981D01*
X177763691Y-97431789D01*
X177763714Y-97854393D01*
X177763715Y-97937414D01*
X177763755Y-98355614D01*
X177763817Y-98739313D01*
X177763854Y-99090009D01*
X177763817Y-99409204D01*
X177763662Y-99698398D01*
X177763339Y-99959091D01*
X177762801Y-100192784D01*
X177762001Y-100400976D01*
X177760892Y-100585168D01*
X177759916Y-100692857D01*
X177759428Y-100746860D01*
X177757560Y-100887553D01*
%TD*%
M02*
