%TF.GenerationSoftware,KiCad,Pcbnew,(6.0.7)*%
%TF.CreationDate,2022-09-23T14:32:50+02:00*%
%TF.ProjectId,LED torch,4c454420-746f-4726-9368-2e6b69636164,0.1*%
%TF.SameCoordinates,Original*%
%TF.FileFunction,Copper,L1,Top*%
%TF.FilePolarity,Positive*%
%FSLAX46Y46*%
G04 Gerber Fmt 4.6, Leading zero omitted, Abs format (unit mm)*
G04 Created by KiCad (PCBNEW (6.0.7)) date 2022-09-23 14:32:50*
%MOMM*%
%LPD*%
G01*
G04 APERTURE LIST*
%TA.AperFunction,ComponentPad*%
%ADD10C,1.400000*%
%TD*%
%TA.AperFunction,ComponentPad*%
%ADD11O,1.400000X1.400000*%
%TD*%
%TA.AperFunction,SMDPad,CuDef*%
%ADD12R,2.540000X3.510000*%
%TD*%
%TA.AperFunction,ComponentPad*%
%ADD13C,1.700000*%
%TD*%
%TA.AperFunction,ComponentPad*%
%ADD14R,1.700000X1.700000*%
%TD*%
%TA.AperFunction,ComponentPad*%
%ADD15R,1.800000X1.800000*%
%TD*%
%TA.AperFunction,ComponentPad*%
%ADD16C,1.800000*%
%TD*%
%TA.AperFunction,Conductor*%
%ADD17C,0.250000*%
%TD*%
G04 APERTURE END LIST*
D10*
%TO.P,R1,1*%
%TO.N,/LED_anode*%
X124460000Y-101600000D03*
D11*
%TO.P,R1,2*%
%TO.N,Net-(SW1-Pad1)*%
X124460000Y-93980000D03*
%TD*%
D12*
%TO.P,BT1,1,+*%
%TO.N,/bat_pos*%
X152960000Y-97790000D03*
%TO.P,BT1,2,-*%
%TO.N,/LED_cathode*%
X182320000Y-97790000D03*
%TD*%
D13*
%TO.P,SW1,1,A*%
%TO.N,Net-(SW1-Pad1)*%
X141680000Y-95540000D03*
D14*
X135180000Y-95540000D03*
D13*
%TO.P,SW1,2,B*%
%TO.N,/bat_pos*%
X135180000Y-100040000D03*
X141680000Y-100040000D03*
%TD*%
D15*
%TO.P,D1,1,K*%
%TO.N,/LED_cathode*%
X115570000Y-96520000D03*
D16*
%TO.P,D1,2,A*%
%TO.N,/LED_anode*%
X115570000Y-99060000D03*
%TD*%
D17*
%TO.N,/bat_pos*%
X141680000Y-98837919D02*
X143510000Y-97007919D01*
X143510000Y-97007919D02*
X143510000Y-95250000D01*
X143510000Y-95250000D02*
X144780000Y-93980000D01*
X141680000Y-100040000D02*
X141680000Y-98837919D01*
X135180000Y-100040000D02*
X141680000Y-100040000D01*
X144780000Y-93980000D02*
X149860000Y-93980000D01*
X149860000Y-93980000D02*
X152960000Y-97080000D01*
X152960000Y-97080000D02*
X152960000Y-97790000D01*
%TO.N,/LED_cathode*%
X115570000Y-96520000D02*
X115570000Y-95250000D01*
X165100000Y-91440000D02*
X171450000Y-97790000D01*
X171450000Y-97790000D02*
X182320000Y-97790000D01*
X115570000Y-95250000D02*
X119380000Y-91440000D01*
X119380000Y-91440000D02*
X165100000Y-91440000D01*
%TO.N,/LED_anode*%
X115570000Y-99060000D02*
X120015000Y-99060000D01*
X120015000Y-99060000D02*
X122555000Y-101600000D01*
X122555000Y-101600000D02*
X124460000Y-101600000D01*
%TO.N,Net-(SW1-Pad1)*%
X133620000Y-93980000D02*
X135180000Y-95540000D01*
X124460000Y-93980000D02*
X133620000Y-93980000D01*
X135180000Y-95540000D02*
X141680000Y-95540000D01*
%TD*%
M02*
