solid ascii
  facet normal 0.000000e+000 1.000000e+000 -0.000000e+000
    outer loop
      vertex   -5.000000e+000 2.600000e+002 0.000000e+000
      vertex   -5.333333e+001 2.600000e+002 0.000000e+000
      vertex   -5.000000e+000 2.600000e+002 2.000000e+000
    endloop
  endfacet
  facet normal 0.000000e+000 4.134393e-002 0.000000e+000
    outer loop
      vertex   -5.000000e+000 2.600000e+002 2.000000e+000
      vertex   -5.333333e+001 2.600000e+002 0.000000e+000
      vertex   -5.333333e+001 2.600000e+002 2.000000e+000
    endloop
  endfacet
  facet normal 0.000000e+000 9.991450e-001 0.000000e+000
    outer loop
      vertex   -5.333333e+001 2.600000e+002 2.000000e+000
      vertex   -5.333333e+001 2.600000e+002 0.000000e+000
      vertex   -1.016667e+002 2.600000e+002 0.000000e+000
    endloop
  endfacet
  facet normal 0.000000e+000 4.134393e-002 0.000000e+000
    outer loop
      vertex   -5.333333e+001 2.600000e+002 2.000000e+000
      vertex   -1.016667e+002 2.600000e+002 0.000000e+000
      vertex   -1.016667e+002 2.600000e+002 2.000000e+000
    endloop
  endfacet
  facet normal 0.000000e+000 9.991450e-001 0.000000e+000
    outer loop
      vertex   -1.016667e+002 2.600000e+002 2.000000e+000
      vertex   -1.016667e+002 2.600000e+002 0.000000e+000
      vertex   -1.500000e+002 2.600000e+002 0.000000e+000
    endloop
  endfacet
  facet normal 0.000000e+000 4.134393e-002 0.000000e+000
    outer loop
      vertex   -1.016667e+002 2.600000e+002 2.000000e+000
      vertex   -1.500000e+002 2.600000e+002 0.000000e+000
      vertex   -1.500000e+002 2.600000e+002 2.000000e+000
    endloop
  endfacet
  facet normal 1.000000e+000 0.000000e+000 0.000000e+000
    outer loop
      vertex   -5.000000e+000 7.500000e+001 0.000000e+000
      vertex   -5.000000e+000 1.212500e+002 0.000000e+000
      vertex   -5.000000e+000 7.500000e+001 2.000000e+000
    endloop
  endfacet
  facet normal 4.320287e-002 -0.000000e+000 0.000000e+000
    outer loop
      vertex   -5.000000e+000 7.500000e+001 2.000000e+000
      vertex   -5.000000e+000 1.212500e+002 0.000000e+000
      vertex   -5.000000e+000 1.212500e+002 2.000000e+000
    endloop
  endfacet
  facet normal 9.990663e-001 0.000000e+000 0.000000e+000
    outer loop
      vertex   -5.000000e+000 1.212500e+002 2.000000e+000
      vertex   -5.000000e+000 1.212500e+002 0.000000e+000
      vertex   -5.000000e+000 1.675000e+002 0.000000e+000
    endloop
  endfacet
  facet normal 4.320287e-002 -0.000000e+000 0.000000e+000
    outer loop
      vertex   -5.000000e+000 1.212500e+002 2.000000e+000
      vertex   -5.000000e+000 1.675000e+002 0.000000e+000
      vertex   -5.000000e+000 1.675000e+002 2.000000e+000
    endloop
  endfacet
  facet normal 9.990663e-001 0.000000e+000 0.000000e+000
    outer loop
      vertex   -5.000000e+000 1.675000e+002 2.000000e+000
      vertex   -5.000000e+000 1.675000e+002 0.000000e+000
      vertex   -5.000000e+000 2.137500e+002 0.000000e+000
    endloop
  endfacet
  facet normal 4.320287e-002 -0.000000e+000 0.000000e+000
    outer loop
      vertex   -5.000000e+000 1.675000e+002 2.000000e+000
      vertex   -5.000000e+000 2.137500e+002 0.000000e+000
      vertex   -5.000000e+000 2.137500e+002 2.000000e+000
    endloop
  endfacet
  facet normal 9.990663e-001 0.000000e+000 0.000000e+000
    outer loop
      vertex   -5.000000e+000 2.137500e+002 2.000000e+000
      vertex   -5.000000e+000 2.137500e+002 0.000000e+000
      vertex   -5.000000e+000 2.600000e+002 0.000000e+000
    endloop
  endfacet
  facet normal 4.320287e-002 -0.000000e+000 0.000000e+000
    outer loop
      vertex   -5.000000e+000 2.137500e+002 2.000000e+000
      vertex   -5.000000e+000 2.600000e+002 0.000000e+000
      vertex   -5.000000e+000 2.600000e+002 2.000000e+000
    endloop
  endfacet
  facet normal 0.000000e+000 -1.000000e+000 0.000000e+000
    outer loop
      vertex   -1.500000e+002 7.500000e+001 0.000000e+000
      vertex   -1.016667e+002 7.500000e+001 0.000000e+000
      vertex   -1.500000e+002 7.500000e+001 2.000000e+000
    endloop
  endfacet
  facet normal 0.000000e+000 -4.134393e-002 0.000000e+000
    outer loop
      vertex   -1.500000e+002 7.500000e+001 2.000000e+000
      vertex   -1.016667e+002 7.500000e+001 0.000000e+000
      vertex   -1.016667e+002 7.500000e+001 2.000000e+000
    endloop
  endfacet
  facet normal 0.000000e+000 -9.991450e-001 0.000000e+000
    outer loop
      vertex   -1.016667e+002 7.500000e+001 2.000000e+000
      vertex   -1.016667e+002 7.500000e+001 0.000000e+000
      vertex   -5.333333e+001 7.500000e+001 0.000000e+000
    endloop
  endfacet
  facet normal 0.000000e+000 -4.134393e-002 0.000000e+000
    outer loop
      vertex   -1.016667e+002 7.500000e+001 2.000000e+000
      vertex   -5.333333e+001 7.500000e+001 0.000000e+000
      vertex   -5.333333e+001 7.500000e+001 2.000000e+000
    endloop
  endfacet
  facet normal 0.000000e+000 -9.991450e-001 0.000000e+000
    outer loop
      vertex   -5.333333e+001 7.500000e+001 2.000000e+000
      vertex   -5.333333e+001 7.500000e+001 0.000000e+000
      vertex   -5.000000e+000 7.500000e+001 0.000000e+000
    endloop
  endfacet
  facet normal 0.000000e+000 -4.134393e-002 0.000000e+000
    outer loop
      vertex   -5.333333e+001 7.500000e+001 2.000000e+000
      vertex   -5.000000e+000 7.500000e+001 0.000000e+000
      vertex   -5.000000e+000 7.500000e+001 2.000000e+000
    endloop
  endfacet
  facet normal -1.000000e+000 0.000000e+000 0.000000e+000
    outer loop
      vertex   -1.500000e+002 2.600000e+002 0.000000e+000
      vertex   -1.500000e+002 2.137500e+002 0.000000e+000
      vertex   -1.500000e+002 2.600000e+002 2.000000e+000
    endloop
  endfacet
  facet normal -4.320287e-002 -0.000000e+000 0.000000e+000
    outer loop
      vertex   -1.500000e+002 2.600000e+002 2.000000e+000
      vertex   -1.500000e+002 2.137500e+002 0.000000e+000
      vertex   -1.500000e+002 2.137500e+002 2.000000e+000
    endloop
  endfacet
  facet normal -9.990663e-001 0.000000e+000 -0.000000e+000
    outer loop
      vertex   -1.500000e+002 2.137500e+002 2.000000e+000
      vertex   -1.500000e+002 2.137500e+002 0.000000e+000
      vertex   -1.500000e+002 1.675000e+002 0.000000e+000
    endloop
  endfacet
  facet normal -4.320287e-002 -0.000000e+000 0.000000e+000
    outer loop
      vertex   -1.500000e+002 2.137500e+002 2.000000e+000
      vertex   -1.500000e+002 1.675000e+002 0.000000e+000
      vertex   -1.500000e+002 1.675000e+002 2.000000e+000
    endloop
  endfacet
  facet normal -9.990663e-001 0.000000e+000 -0.000000e+000
    outer loop
      vertex   -1.500000e+002 1.675000e+002 2.000000e+000
      vertex   -1.500000e+002 1.675000e+002 0.000000e+000
      vertex   -1.500000e+002 1.212500e+002 0.000000e+000
    endloop
  endfacet
  facet normal -4.320287e-002 -0.000000e+000 0.000000e+000
    outer loop
      vertex   -1.500000e+002 1.675000e+002 2.000000e+000
      vertex   -1.500000e+002 1.212500e+002 0.000000e+000
      vertex   -1.500000e+002 1.212500e+002 2.000000e+000
    endloop
  endfacet
  facet normal -9.990663e-001 0.000000e+000 -0.000000e+000
    outer loop
      vertex   -1.500000e+002 1.212500e+002 2.000000e+000
      vertex   -1.500000e+002 1.212500e+002 0.000000e+000
      vertex   -1.500000e+002 7.500000e+001 0.000000e+000
    endloop
  endfacet
  facet normal -4.320287e-002 -0.000000e+000 0.000000e+000
    outer loop
      vertex   -1.500000e+002 1.212500e+002 2.000000e+000
      vertex   -1.500000e+002 7.500000e+001 0.000000e+000
      vertex   -1.500000e+002 7.500000e+001 2.000000e+000
    endloop
  endfacet
  facet normal 0.000000e+000 0.000000e+000 1.000000e+000
    outer loop
      vertex   -1.016667e+002 2.600000e+002 2.000000e+000
      vertex   -1.500000e+002 2.600000e+002 2.000000e+000
      vertex   -1.016667e+002 2.137500e+002 2.000000e+000
    endloop
  endfacet
  facet normal 0.000000e+000 0.000000e+000 6.913640e-001
    outer loop
      vertex   -1.016667e+002 2.137500e+002 2.000000e+000
      vertex   -1.500000e+002 2.600000e+002 2.000000e+000
      vertex   -1.500000e+002 2.137500e+002 2.000000e+000
    endloop
  endfacet
  facet normal 0.000000e+000 0.000000e+000 1.000000e+000
    outer loop
      vertex   -1.016667e+002 2.137500e+002 2.000000e+000
      vertex   -1.500000e+002 2.137500e+002 2.000000e+000
      vertex   -1.016667e+002 1.675000e+002 2.000000e+000
    endloop
  endfacet
  facet normal 0.000000e+000 0.000000e+000 6.913640e-001
    outer loop
      vertex   -1.016667e+002 1.675000e+002 2.000000e+000
      vertex   -1.500000e+002 2.137500e+002 2.000000e+000
      vertex   -1.500000e+002 1.675000e+002 2.000000e+000
    endloop
  endfacet
  facet normal 0.000000e+000 0.000000e+000 1.000000e+000
    outer loop
      vertex   -1.016667e+002 1.675000e+002 2.000000e+000
      vertex   -1.500000e+002 1.675000e+002 2.000000e+000
      vertex   -1.016667e+002 1.212500e+002 2.000000e+000
    endloop
  endfacet
  facet normal 0.000000e+000 0.000000e+000 6.913640e-001
    outer loop
      vertex   -1.016667e+002 1.212500e+002 2.000000e+000
      vertex   -1.500000e+002 1.675000e+002 2.000000e+000
      vertex   -1.500000e+002 1.212500e+002 2.000000e+000
    endloop
  endfacet
  facet normal 0.000000e+000 0.000000e+000 1.000000e+000
    outer loop
      vertex   -1.016667e+002 1.212500e+002 2.000000e+000
      vertex   -1.500000e+002 1.212500e+002 2.000000e+000
      vertex   -1.016667e+002 7.500000e+001 2.000000e+000
    endloop
  endfacet
  facet normal 0.000000e+000 0.000000e+000 6.913640e-001
    outer loop
      vertex   -1.016667e+002 7.500000e+001 2.000000e+000
      vertex   -1.500000e+002 1.212500e+002 2.000000e+000
      vertex   -1.500000e+002 7.500000e+001 2.000000e+000
    endloop
  endfacet
  facet normal 0.000000e+000 0.000000e+000 1.000000e+000
    outer loop
      vertex   -1.016667e+002 7.500000e+001 2.000000e+000
      vertex   -5.333333e+001 7.500000e+001 2.000000e+000
      vertex   -1.016667e+002 1.212500e+002 2.000000e+000
    endloop
  endfacet
  facet normal -0.000000e+000 0.000000e+000 6.913640e-001
    outer loop
      vertex   -1.016667e+002 1.212500e+002 2.000000e+000
      vertex   -5.333333e+001 7.500000e+001 2.000000e+000
      vertex   -5.333333e+001 1.212500e+002 2.000000e+000
    endloop
  endfacet
  facet normal 0.000000e+000 0.000000e+000 1.000000e+000
    outer loop
      vertex   -1.016667e+002 1.212500e+002 2.000000e+000
      vertex   -5.333333e+001 1.212500e+002 2.000000e+000
      vertex   -1.016667e+002 1.675000e+002 2.000000e+000
    endloop
  endfacet
  facet normal -0.000000e+000 0.000000e+000 6.913640e-001
    outer loop
      vertex   -1.016667e+002 1.675000e+002 2.000000e+000
      vertex   -5.333333e+001 1.212500e+002 2.000000e+000
      vertex   -5.333333e+001 1.675000e+002 2.000000e+000
    endloop
  endfacet
  facet normal 0.000000e+000 0.000000e+000 1.000000e+000
    outer loop
      vertex   -1.016667e+002 1.675000e+002 2.000000e+000
      vertex   -5.333333e+001 1.675000e+002 2.000000e+000
      vertex   -1.016667e+002 2.137500e+002 2.000000e+000
    endloop
  endfacet
  facet normal -0.000000e+000 0.000000e+000 6.913640e-001
    outer loop
      vertex   -1.016667e+002 2.137500e+002 2.000000e+000
      vertex   -5.333333e+001 1.675000e+002 2.000000e+000
      vertex   -5.333333e+001 2.137500e+002 2.000000e+000
    endloop
  endfacet
  facet normal 0.000000e+000 0.000000e+000 1.000000e+000
    outer loop
      vertex   -1.016667e+002 2.137500e+002 2.000000e+000
      vertex   -5.333333e+001 2.137500e+002 2.000000e+000
      vertex   -1.016667e+002 2.600000e+002 2.000000e+000
    endloop
  endfacet
  facet normal -0.000000e+000 0.000000e+000 6.913640e-001
    outer loop
      vertex   -1.016667e+002 2.600000e+002 2.000000e+000
      vertex   -5.333333e+001 2.137500e+002 2.000000e+000
      vertex   -5.333333e+001 2.600000e+002 2.000000e+000
    endloop
  endfacet
  facet normal 0.000000e+000 0.000000e+000 7.225066e-001
    outer loop
      vertex   -5.333333e+001 2.600000e+002 2.000000e+000
      vertex   -5.333333e+001 2.137500e+002 2.000000e+000
      vertex   -5.000000e+000 2.137500e+002 2.000000e+000
    endloop
  endfacet
  facet normal -0.000000e+000 0.000000e+000 6.913640e-001
    outer loop
      vertex   -5.333333e+001 2.600000e+002 2.000000e+000
      vertex   -5.000000e+000 2.137500e+002 2.000000e+000
      vertex   -5.000000e+000 2.600000e+002 2.000000e+000
    endloop
  endfacet
  facet normal 0.000000e+000 0.000000e+000 1.000000e+000
    outer loop
      vertex   -5.333333e+001 7.500000e+001 2.000000e+000
      vertex   -5.000000e+000 7.500000e+001 2.000000e+000
      vertex   -5.333333e+001 1.212500e+002 2.000000e+000
    endloop
  endfacet
  facet normal -0.000000e+000 0.000000e+000 6.913640e-001
    outer loop
      vertex   -5.333333e+001 1.212500e+002 2.000000e+000
      vertex   -5.000000e+000 7.500000e+001 2.000000e+000
      vertex   -5.000000e+000 1.212500e+002 2.000000e+000
    endloop
  endfacet
  facet normal 0.000000e+000 0.000000e+000 1.000000e+000
    outer loop
      vertex   -5.333333e+001 1.212500e+002 2.000000e+000
      vertex   -5.000000e+000 1.212500e+002 2.000000e+000
      vertex   -5.333333e+001 1.675000e+002 2.000000e+000
    endloop
  endfacet
  facet normal -0.000000e+000 0.000000e+000 6.913640e-001
    outer loop
      vertex   -5.333333e+001 1.675000e+002 2.000000e+000
      vertex   -5.000000e+000 1.212500e+002 2.000000e+000
      vertex   -5.000000e+000 1.675000e+002 2.000000e+000
    endloop
  endfacet
  facet normal 0.000000e+000 0.000000e+000 1.000000e+000
    outer loop
      vertex   -5.333333e+001 1.675000e+002 2.000000e+000
      vertex   -5.000000e+000 1.675000e+002 2.000000e+000
      vertex   -5.333333e+001 2.137500e+002 2.000000e+000
    endloop
  endfacet
  facet normal -0.000000e+000 0.000000e+000 6.913640e-001
    outer loop
      vertex   -5.333333e+001 2.137500e+002 2.000000e+000
      vertex   -5.000000e+000 1.675000e+002 2.000000e+000
      vertex   -5.000000e+000 2.137500e+002 2.000000e+000
    endloop
  endfacet
  facet normal 0.000000e+000 0.000000e+000 -1.000000e+000
    outer loop
      vertex   -1.016667e+002 7.500000e+001 0.000000e+000
      vertex   -1.500000e+002 7.500000e+001 0.000000e+000
      vertex   -1.016667e+002 1.212500e+002 0.000000e+000
    endloop
  endfacet
  facet normal -0.000000e+000 0.000000e+000 -6.913640e-001
    outer loop
      vertex   -1.016667e+002 1.212500e+002 0.000000e+000
      vertex   -1.500000e+002 7.500000e+001 0.000000e+000
      vertex   -1.500000e+002 1.212500e+002 0.000000e+000
    endloop
  endfacet
  facet normal 0.000000e+000 0.000000e+000 -1.000000e+000
    outer loop
      vertex   -1.016667e+002 1.212500e+002 0.000000e+000
      vertex   -1.500000e+002 1.212500e+002 0.000000e+000
      vertex   -1.016667e+002 1.675000e+002 0.000000e+000
    endloop
  endfacet
  facet normal -0.000000e+000 0.000000e+000 -6.913640e-001
    outer loop
      vertex   -1.016667e+002 1.675000e+002 0.000000e+000
      vertex   -1.500000e+002 1.212500e+002 0.000000e+000
      vertex   -1.500000e+002 1.675000e+002 0.000000e+000
    endloop
  endfacet
  facet normal 0.000000e+000 0.000000e+000 -1.000000e+000
    outer loop
      vertex   -1.016667e+002 1.675000e+002 0.000000e+000
      vertex   -1.500000e+002 1.675000e+002 0.000000e+000
      vertex   -1.016667e+002 2.137500e+002 0.000000e+000
    endloop
  endfacet
  facet normal -0.000000e+000 0.000000e+000 -6.913640e-001
    outer loop
      vertex   -1.016667e+002 2.137500e+002 0.000000e+000
      vertex   -1.500000e+002 1.675000e+002 0.000000e+000
      vertex   -1.500000e+002 2.137500e+002 0.000000e+000
    endloop
  endfacet
  facet normal 0.000000e+000 0.000000e+000 -1.000000e+000
    outer loop
      vertex   -1.016667e+002 2.137500e+002 0.000000e+000
      vertex   -1.500000e+002 2.137500e+002 0.000000e+000
      vertex   -1.016667e+002 2.600000e+002 0.000000e+000
    endloop
  endfacet
  facet normal -0.000000e+000 0.000000e+000 -6.913640e-001
    outer loop
      vertex   -1.016667e+002 2.600000e+002 0.000000e+000
      vertex   -1.500000e+002 2.137500e+002 0.000000e+000
      vertex   -1.500000e+002 2.600000e+002 0.000000e+000
    endloop
  endfacet
  facet normal 0.000000e+000 0.000000e+000 -1.000000e+000
    outer loop
      vertex   -1.016667e+002 2.600000e+002 0.000000e+000
      vertex   -5.333333e+001 2.600000e+002 0.000000e+000
      vertex   -1.016667e+002 2.137500e+002 0.000000e+000
    endloop
  endfacet
  facet normal 0.000000e+000 0.000000e+000 -6.913640e-001
    outer loop
      vertex   -1.016667e+002 2.137500e+002 0.000000e+000
      vertex   -5.333333e+001 2.600000e+002 0.000000e+000
      vertex   -5.333333e+001 2.137500e+002 0.000000e+000
    endloop
  endfacet
  facet normal 0.000000e+000 0.000000e+000 -1.000000e+000
    outer loop
      vertex   -1.016667e+002 2.137500e+002 0.000000e+000
      vertex   -5.333333e+001 2.137500e+002 0.000000e+000
      vertex   -1.016667e+002 1.675000e+002 0.000000e+000
    endloop
  endfacet
  facet normal 0.000000e+000 0.000000e+000 -6.913640e-001
    outer loop
      vertex   -1.016667e+002 1.675000e+002 0.000000e+000
      vertex   -5.333333e+001 2.137500e+002 0.000000e+000
      vertex   -5.333333e+001 1.675000e+002 0.000000e+000
    endloop
  endfacet
  facet normal 0.000000e+000 0.000000e+000 -1.000000e+000
    outer loop
      vertex   -1.016667e+002 1.675000e+002 0.000000e+000
      vertex   -5.333333e+001 1.675000e+002 0.000000e+000
      vertex   -1.016667e+002 1.212500e+002 0.000000e+000
    endloop
  endfacet
  facet normal 0.000000e+000 0.000000e+000 -6.913640e-001
    outer loop
      vertex   -1.016667e+002 1.212500e+002 0.000000e+000
      vertex   -5.333333e+001 1.675000e+002 0.000000e+000
      vertex   -5.333333e+001 1.212500e+002 0.000000e+000
    endloop
  endfacet
  facet normal 0.000000e+000 0.000000e+000 -1.000000e+000
    outer loop
      vertex   -1.016667e+002 1.212500e+002 0.000000e+000
      vertex   -5.333333e+001 1.212500e+002 0.000000e+000
      vertex   -1.016667e+002 7.500000e+001 0.000000e+000
    endloop
  endfacet
  facet normal 0.000000e+000 0.000000e+000 -6.913640e-001
    outer loop
      vertex   -1.016667e+002 7.500000e+001 0.000000e+000
      vertex   -5.333333e+001 1.212500e+002 0.000000e+000
      vertex   -5.333333e+001 7.500000e+001 0.000000e+000
    endloop
  endfacet
  facet normal 0.000000e+000 0.000000e+000 -7.225066e-001
    outer loop
      vertex   -5.333333e+001 7.500000e+001 0.000000e+000
      vertex   -5.333333e+001 1.212500e+002 0.000000e+000
      vertex   -5.000000e+000 1.212500e+002 0.000000e+000
    endloop
  endfacet
  facet normal 0.000000e+000 0.000000e+000 -6.913640e-001
    outer loop
      vertex   -5.333333e+001 7.500000e+001 0.000000e+000
      vertex   -5.000000e+000 1.212500e+002 0.000000e+000
      vertex   -5.000000e+000 7.500000e+001 0.000000e+000
    endloop
  endfacet
  facet normal 0.000000e+000 0.000000e+000 -1.000000e+000
    outer loop
      vertex   -5.333333e+001 2.600000e+002 0.000000e+000
      vertex   -5.000000e+000 2.600000e+002 0.000000e+000
      vertex   -5.333333e+001 2.137500e+002 0.000000e+000
    endloop
  endfacet
  facet normal 0.000000e+000 0.000000e+000 -6.913640e-001
    outer loop
      vertex   -5.333333e+001 2.137500e+002 0.000000e+000
      vertex   -5.000000e+000 2.600000e+002 0.000000e+000
      vertex   -5.000000e+000 2.137500e+002 0.000000e+000
    endloop
  endfacet
  facet normal 0.000000e+000 0.000000e+000 -1.000000e+000
    outer loop
      vertex   -5.333333e+001 2.137500e+002 0.000000e+000
      vertex   -5.000000e+000 2.137500e+002 0.000000e+000
      vertex   -5.333333e+001 1.675000e+002 0.000000e+000
    endloop
  endfacet
  facet normal 0.000000e+000 0.000000e+000 -6.913640e-001
    outer loop
      vertex   -5.333333e+001 1.675000e+002 0.000000e+000
      vertex   -5.000000e+000 2.137500e+002 0.000000e+000
      vertex   -5.000000e+000 1.675000e+002 0.000000e+000
    endloop
  endfacet
  facet normal 0.000000e+000 0.000000e+000 -1.000000e+000
    outer loop
      vertex   -5.333333e+001 1.675000e+002 0.000000e+000
      vertex   -5.000000e+000 1.675000e+002 0.000000e+000
      vertex   -5.333333e+001 1.212500e+002 0.000000e+000
    endloop
  endfacet
  facet normal 0.000000e+000 0.000000e+000 -6.913640e-001
    outer loop
      vertex   -5.333333e+001 1.212500e+002 0.000000e+000
      vertex   -5.000000e+000 1.675000e+002 0.000000e+000
      vertex   -5.000000e+000 1.212500e+002 0.000000e+000
    endloop
  endfacet
endsolid
