M48
; DRILL file {KiCad (6.0.7-1)-1} date Saturday, 15 October 2022 at 22:10:37
; FORMAT={-:-/ absolute / inch / decimal}
; #@! TF.CreationDate,2022-10-15T22:10:37+02:00
; #@! TF.GenerationSoftware,Kicad,Pcbnew,(6.0.7-1)-1
; #@! TF.FileFunction,Plated,1,2,PTH
FMAT,2
INCH
; #@! TA.AperFunction,Plated,PTH,ComponentDrill
T1C0.0315
; #@! TA.AperFunction,Plated,PTH,ComponentDrill
T2C0.0354
; #@! TA.AperFunction,Plated,PTH,ComponentDrill
T3C0.0394
; #@! TA.AperFunction,Plated,PTH,ComponentDrill
T4C0.0433
; #@! TA.AperFunction,Plated,PTH,ComponentDrill
T5C0.0630
%
G90
G05
T1
X2.0Y-4.71
X2.0Y-5.01
X2.135Y-4.41
X2.135Y-4.5084
X2.235Y-5.86
X2.235Y-6.16
T2
X2.16Y-4.78
X2.16Y-5.56
X2.215Y-5.0881
X2.215Y-5.1866
X2.215Y-5.285
X2.26Y-4.78
X2.26Y-5.56
T3
X1.705Y-4.355
X1.705Y-4.5519
X2.46Y-4.32
X2.46Y-4.42
X2.46Y-6.09
X2.46Y-6.19
X2.56Y-4.32
X2.56Y-4.42
X2.56Y-6.09
X2.56Y-6.19
T4
X1.54Y-5.135
X1.54Y-5.3217
X1.54Y-5.5083
X1.54Y-5.695
X1.6Y-4.87
X1.7Y-4.87
X1.8Y-4.87
X1.94Y-5.135
X1.94Y-5.3217
X1.94Y-5.5083
X1.94Y-5.695
T5
X1.7888Y-6.01
X1.9069Y-6.195
X2.025Y-6.01
T0
M30
