%TF.GenerationSoftware,KiCad,Pcbnew,(6.0.7-1)-1*%
%TF.CreationDate,2022-10-15T22:10:26+02:00*%
%TF.ProjectId,BreadboardPowerSupply_v2,42726561-6462-46f6-9172-64506f776572,2*%
%TF.SameCoordinates,Original*%
%TF.FileFunction,Soldermask,Bot*%
%TF.FilePolarity,Negative*%
%FSLAX46Y46*%
G04 Gerber Fmt 4.6, Leading zero omitted, Abs format (unit mm)*
G04 Created by KiCad (PCBNEW (6.0.7-1)-1) date 2022-10-15 22:10:26*
%MOMM*%
%LPD*%
G01*
G04 APERTURE LIST*
G04 Aperture macros list*
%AMRoundRect*
0 Rectangle with rounded corners*
0 $1 Rounding radius*
0 $2 $3 $4 $5 $6 $7 $8 $9 X,Y pos of 4 corners*
0 Add a 4 corners polygon primitive as box body*
4,1,4,$2,$3,$4,$5,$6,$7,$8,$9,$2,$3,0*
0 Add four circle primitives for the rounded corners*
1,1,$1+$1,$2,$3*
1,1,$1+$1,$4,$5*
1,1,$1+$1,$6,$7*
1,1,$1+$1,$8,$9*
0 Add four rect primitives between the rounded corners*
20,1,$1+$1,$2,$3,$4,$5,0*
20,1,$1+$1,$4,$5,$6,$7,0*
20,1,$1+$1,$6,$7,$8,$9,0*
20,1,$1+$1,$8,$9,$2,$3,0*%
G04 Aperture macros list end*
%ADD10RoundRect,0.200000X-1.300000X1.300000X-1.300000X-1.300000X1.300000X-1.300000X1.300000X1.300000X0*%
%ADD11C,3.000000*%
%ADD12RoundRect,0.200000X0.850000X0.850000X-0.850000X0.850000X-0.850000X-0.850000X0.850000X-0.850000X0*%
%ADD13O,2.100000X2.100000*%
%ADD14RoundRect,0.200000X0.950000X-0.950000X0.950000X0.950000X-0.950000X0.950000X-0.950000X-0.950000X0*%
%ADD15C,2.300000*%
%ADD16RoundRect,0.200000X-1.100000X-1.100000X1.100000X-1.100000X1.100000X1.100000X-1.100000X1.100000X0*%
%ADD17O,2.600000X2.600000*%
%ADD18RoundRect,0.200000X-0.952500X-1.000000X0.952500X-1.000000X0.952500X1.000000X-0.952500X1.000000X0*%
%ADD19O,2.305000X2.400000*%
%ADD20C,2.000000*%
%ADD21O,2.000000X2.000000*%
%ADD22RoundRect,0.200000X-0.800000X0.800000X-0.800000X-0.800000X0.800000X-0.800000X0.800000X0.800000X0*%
%ADD23RoundRect,0.200000X-1.000000X1.000000X-1.000000X-1.000000X1.000000X-1.000000X1.000000X1.000000X0*%
%ADD24C,2.400000*%
%ADD25RoundRect,0.200000X-0.900000X-0.900000X0.900000X-0.900000X0.900000X0.900000X-0.900000X0.900000X0*%
%ADD26C,2.200000*%
G04 APERTURE END LIST*
D10*
%TO.C,J1*%
X51435000Y-152654000D03*
D11*
X45435000Y-152654000D03*
X48435000Y-157354000D03*
%TD*%
D12*
%TO.C,J2*%
X65024000Y-157226000D03*
D13*
X62484000Y-157226000D03*
X65024000Y-154686000D03*
X62484000Y-154686000D03*
%TD*%
D14*
%TO.C,SW1*%
X56261000Y-134239000D03*
D15*
X56261000Y-131739000D03*
X56261000Y-129239000D03*
%TD*%
D12*
%TO.C,J3*%
X65024000Y-112268000D03*
D13*
X62484000Y-112268000D03*
X65024000Y-109728000D03*
X62484000Y-109728000D03*
%TD*%
D16*
%TO.C,D2*%
X39116000Y-139911666D03*
D17*
X49276000Y-139911666D03*
%TD*%
D18*
%TO.C,U1*%
X40640000Y-123698000D03*
D19*
X43180000Y-123698000D03*
X45720000Y-123698000D03*
%TD*%
D20*
%TO.C,R2*%
X50800000Y-119634000D03*
D21*
X50800000Y-127254000D03*
%TD*%
D22*
%TO.C,C2*%
X54229000Y-112014000D03*
D20*
X54229000Y-114514000D03*
%TD*%
D16*
%TO.C,D3*%
X39116000Y-135170333D03*
D17*
X49276000Y-135170333D03*
%TD*%
D16*
%TO.C,D4*%
X39116000Y-130429000D03*
D17*
X49276000Y-130429000D03*
%TD*%
D16*
%TO.C,D1*%
X39116000Y-144653000D03*
D17*
X49276000Y-144653000D03*
%TD*%
D20*
%TO.C,R1*%
X56769000Y-156464000D03*
D21*
X56769000Y-148844000D03*
%TD*%
D23*
%TO.C,C1*%
X43307000Y-110617000D03*
D24*
X43307000Y-115617000D03*
%TD*%
D25*
%TO.C,DS5*%
X54864000Y-141224000D03*
D26*
X57404000Y-141224000D03*
%TD*%
D25*
%TO.C,DS6*%
X54864000Y-121412000D03*
D26*
X57404000Y-121412000D03*
%TD*%
M02*
