<svg xmlns="http://www.w3.org/2000/svg" viewBox="0 0 307.61 349.71"><defs><style>.cls-1{isolation:isolate;}.cls-2{fill:#225ba8;}.cls-3{fill:#fbb03b;}.cls-4,.cls-6{fill:none;}.cls-4{stroke:#fff;stroke-linecap:square;stroke-miterlimit:10;stroke-width:9.89px;}.cls-5{opacity:0.2;mix-blend-mode:multiply;}.cls-6{stroke:#f2f2f2;stroke-width:13.08px;}</style></defs><title>eui-logo</title><g class="cls-1"><g id="Layer_2" data-name="Layer 2"><g id="Home"><g id="Logo"><polygon id="badge" class="cls-2" points="300.29 48.65 268.9 257.92 153.81 341.63 38.71 257.92 7.32 48.65 153.81 6.8 300.29 48.65"/><g id="stars"><path id="path5611" class="cls-3" d="M157.36,76.63h12l-9.66,7.53,3.76,11.94-9.63-7.35-9.63,7.35L148,84.16l-9.75-7.53h12L153.81,65l3.55,11.65Z"/><path id="path5615" class="cls-3" d="M157.78,230.38h12l-9.68,7.26,3.76,11.47L154.25,242l-9.62,7.07,3.79-11.47-9.77-7.26h12l3.62-11.2Z"/><path id="path5619" class="cls-3" d="M195.81,220.2h12l-9.68,7.25,3.76,11.49-9.63-7.1-9.62,7.1,3.79-11.49-9.77-7.25h12L192.28,209Z"/><path id="path5623" class="cls-3" d="M195.81,86.88h12l-9.68,7.25,3.76,11.49-9.63-7.08-9.62,7.08,3.79-11.49-9.77-7.25h12l3.62-11.2Z"/><path id="path5627" class="cls-3" d="M224.05,115.12h12l-9.66,7.23,3.76,11.5-9.63-7.08-9.6,7.08,3.79-11.5-9.77-7.23h12l3.62-11.22Z"/><path id="path5631" class="cls-3" d="M224.05,192.34h12l-9.66,7.26,3.76,11.5L220.5,204l-9.6,7.1,3.79-11.5-9.77-7.26h12l3.62-11.22Z"/><path id="path5635" class="cls-3" d="M234.63,153.14h12L237,160.39l3.76,11.5-9.63-7.1-9.62,7.1,3.79-11.5-9.77-7.25h12l3.64-11.2Z"/><path id="path5639" class="cls-3" d="M118.58,87h12l-9.66,7.26,3.76,11.49L115,98.63l-9.63,7.1,3.8-11.49L99.46,87h12L115,75.78,118.59,87Z"/><path id="path5643" class="cls-3" d="M91.13,115.21h12l-9.68,7.25L97.21,134l-9.62-7.1L78,134l3.77-11.5L72,115.21H84L87.6,104l3.53,11.2Z"/><path id="path5647" class="cls-3" d="M80.94,153.24h12l-9.66,7.25L87,172l-9.62-7.08L67.78,172l3.79-11.5-9.74-7.25h12L77.41,142Z"/><path id="path5651" class="cls-3" d="M91.13,192.44h12l-9.68,7.26,3.74,11.5-9.62-7.1L78,211.2l3.77-11.5L72,192.44H84l3.62-11.19,3.53,11.19Z"/><path id="path5655" class="cls-3" d="M119,220.29h12l-9.66,7.25L125,239l-9.6-7.08L105.81,239l3.8-11.49-9.75-7.25h12l3.62-11.22Z"/></g><g id="eui"><polyline class="cls-4" points="127.55 132.12 127.55 168.31 154.71 195.46 181.86 168.31 181.86 132.12"/><line class="cls-4" x1="154.28" y1="132.12" x2="154.28" y2="163.74"/></g><polygon id="shadow" class="cls-5" points="153.81 341.63 268.9 257.92 300.29 48.65 153.81 6.8 153.81 341.63"/><polygon id="border" class="cls-6" points="300.29 48.65 268.9 257.92 153.81 341.63 38.71 257.92 7.32 48.65 153.81 6.8 300.29 48.65"/></g></g></g></g></svg>